<?xml version="1.0" encoding="UTF-8" standalone="no"?>
<!-- Created with Inkscape (http://www.inkscape.org/) -->

<svg
   width="24.95122mm"
   height="25.238831mm"
   viewBox="0 0 24.95122 25.238831"
   version="1.1"
   id="svg5"
   xmlns="http://www.w3.org/2000/svg"
   xmlns:svg="http://www.w3.org/2000/svg">
  <defs
     id="defs2" />
  <g
     id="layer1"
     transform="translate(-99.569606,-127.09714)">
    <path
       style="fill:#20722c;stroke:none;stroke-width:0.264583"
       d="m 109.91771,127.26862 c -1.60985,0.2535 -3.108,0.84399 -4.49791,1.68999 -11.619472,7.07239 -4.47835,25.29247 8.73125,23.21311 13.1609,-2.07161 14.00545,-21.06708 1.32291,-24.64137 -1.74585,-0.49204 -3.76438,-0.5439 -5.55625,-0.26173 m 10.05417,4.11717 -4.7625,4.23333 h 3.70417 v 0.26459 l -5.29167,2.91041 v 0.26459 h 3.70417 c -1.71546,3.20315 -5.45225,2.02771 -7.56963,4.05286 -1.65737,1.5852 -1.69957,4.64994 -3.54287,6.0013 0.12062,-5.84377 0.60608,-13.9006 6.87916,-16.54585 2.13638,-0.90088 4.5783,-1.17488 6.87917,-1.18123 z"
       id="path791" />
  </g>
</svg>
