<svg xmlns="http://www.w3.org/2000/svg" xmlns:svg="http://www.w3.org/2000/svg" id="svg5" width="386" height="262.478" version="1.1" viewBox="0 0 102.129 69.447"><g id="layer1" transform="translate(-49.088102,-81.377351)"><g id="g444"><path style="fill:#8dbd42;stroke-width:.264583" id="path25" d="m 73.399447,125.38605 -1.424886,-1.45653 1.719792,-1.58214 c 4.775538,-4.3933 11.812325,-7.91516 18.785416,-9.40197 3.208134,-0.68404 12.137701,-0.68404 15.345831,0 4.90352,1.04554 9.83612,3.06125 13.89063,5.67645 1.94075,1.2518 5.19455,3.8255 6.06798,4.79967 l 0.51172,0.57075 -1.40681,1.4245 -1.4068,1.4245 -2.01534,-1.72049 c -4.92832,-4.20729 -10.28819,-6.84025 -16.69971,-8.20348 -3.13524,-0.66662 -10.093929,-0.66662 -13.229167,0 -6.499445,1.38192 -12.022011,4.08918 -16.746115,8.20921 l -1.967654,1.71605 z m -5.850111,-5.84255 -0.687769,-0.7276 0.888772,-2.13408 c 0.488825,-1.17374 1.551368,-4.37991 2.361207,-7.12485 0.809839,-2.74492 1.519293,-5.03763 1.576564,-5.09491 0.202198,-0.2022 5.445826,1.54812 5.445826,1.8178 0,1.06191 -8.062124,13.99123 -8.724277,13.99123 -0.09491,0 -0.48205,-0.32741 -0.860323,-0.72759 z m 62.416174,-1.71979 c -2.33484,-3.27478 -4.25798,-6.54802 -8.12235,-13.82448 -6.93827,-13.064519 -9.80208,-16.768219 -14.9436,-19.326179 -1.01865,-0.50679 -2.56646,-1.05444 -3.43958,-1.21699 -2.29331,-0.42696 -2.24896,-0.40179 -2.24896,-1.27665 0,-0.76798 0.0481,-0.80206 1.13142,-0.80206 3.90891,0 8.66353,1.1267 12.28242,2.91054 4.54175,2.23875 8.58692,6.61489 11.03417,11.93696 1.23996,2.69655 2.28594,5.749079 4.2695,12.459909 0.93377,3.15913 2.10393,6.75115 2.60036,7.98227 l 0.90259,2.2384 -0.71273,0.68284 c -0.392,0.37556 -0.77923,0.68283 -0.86051,0.68283 -0.0813,0 -0.93302,-1.10132 -1.89273,-2.44739 z m -66.365053,-10.4351 c -1.722311,-1.7011 -3.199884,-3.30844 -3.283494,-3.57188 -0.27196,-0.85687 0.125343,-1.5373 0.897627,-1.5373 0.560508,0 1.408748,0.69667 3.95092,3.24496 3.324144,3.33216 3.781488,4.11803 2.725403,4.68324 -0.281475,0.15064 -0.657394,0.27388 -0.835377,0.27388 -0.177982,0 -1.732768,-1.3918 -3.455079,-3.0929 z m 68.765253,2.80712 c -0.99906,-0.58189 -0.52371,-1.38141 2.78194,-4.67913 2.52629,-2.52022 3.40132,-3.23717 3.95092,-3.23717 0.76434,0 1.16052,0.68446 0.88984,1.5373 -0.21129,0.66569 -6.32993,6.66662 -6.78733,6.65674 -0.20479,-0.004 -0.58071,-0.12941 -0.83537,-0.27774 z m -38.676417,-6.21541 c -0.360574,-0.36057 -0.415774,-1.53481 -0.415774,-8.844639 0,-7.30983 0.0552,-8.48407 0.415774,-8.84465 0.495173,-0.49517 1.208538,-0.53771 1.647976,-0.0983 0.454441,0.45445 0.454441,17.431389 0,17.885829 -0.439438,0.43944 -1.152803,0.3969 -1.647976,-0.0983 z m 11.278807,0.0983 c -0.45444,-0.45444 -0.45444,-17.431389 0,-17.885829 0.4584,-0.4584 1.12191,-0.39051 1.62587,0.16635 0.38801,0.42875 0.43788,1.43614 0.43788,8.84465 0,7.247939 -0.0553,8.416129 -0.41577,8.776559 -0.49518,0.49517 -1.20854,0.53771 -1.64798,0.0983 z M 80.573519,97.251891 c -0.509323,-0.2791 -1.81901,-0.88161 -2.910416,-1.3389 -1.091407,-0.45728 -2.074826,-0.91565 -2.185374,-1.01858 -0.11055,-0.10294 0.506023,-1.26037 1.370163,-2.57207 4.077094,-6.18875 9.911091,-9.68198 17.827511,-10.67461 1.18586,-0.1487 2.665249,-0.27036 3.28753,-0.27036 1.079138,0 1.13142,0.0365 1.13142,0.78871 0,0.64821 -0.129614,0.81503 -0.727605,0.93643 -6.157981,1.25017 -9.573998,3.74892 -13.762749,10.06719 -0.861573,1.29958 -1.845162,2.8689 -2.185752,3.48736 -0.340587,0.61846 -0.686625,1.11949 -0.768969,1.11339 -0.08234,-0.006 -0.566436,-0.23945 -1.075759,-0.51856 z"/><path style="fill:#828386;stroke-width:.264583" id="path23" d="m 94.254295,146.25507 -4.437345,-4.44312 0.405368,-2.69889 c 0.222951,-1.4844 0.405368,-2.81875 0.405368,-2.96522 0,-0.16726 1.525524,-0.26633 4.101042,-0.26633 h 4.101041 v 7.40834 c 0,4.07458 -0.03108,7.40833 -0.06906,7.40833 -0.03799,0 -2.065869,-1.9994 -4.50641,-4.4431 z m 7.221305,-2.902 v -7.47156 h 4.05844 4.05844 l 0.32284,2.31511 c 0.17756,1.2733 0.37769,2.61276 0.44474,2.97656 0.10439,0.5664 -0.52523,1.30742 -4.38127,5.15646 l -4.50319,4.49499 z m -15.874997,-5.75177 -1.704504,-1.71979 h 2.196189 2.196193 l -0.144267,0.72761 c -0.07935,0.40018 -0.221117,1.17408 -0.31505,1.71979 -0.09393,0.5457 -0.250272,0.99219 -0.347422,0.99219 -0.09715,0 -0.943662,-0.77391 -1.881139,-1.7198 z m 26.875607,0.72761 c -0.0939,-0.54571 -0.23571,-1.31961 -0.31505,-1.71979 l -0.14427,-0.72761 h 2.19619 2.19619 l -1.7045,1.71979 c -0.93748,0.94589 -1.78399,1.7198 -1.88114,1.7198 -0.0971,0 -0.25349,-0.44649 -0.34742,-0.99219 z m -30.844357,-5.03128 c 0,-0.38511 2.075905,-3.75334 3.268326,-5.30298 1.854354,-2.40987 4.946605,-5.14447 7.092294,-6.272 1.789329,-0.94026 1.901325,-0.96781 1.517938,-0.37346 -1.655646,2.56673 -3.222873,6.26301 -4.226549,9.96826 l -0.591278,2.18281 h -3.530367 c -1.9417,0 -3.530364,-0.0912 -3.530364,-0.20263 z m 9.789583,-0.19108 c 0,-0.80343 1.665531,-5.6299 2.662134,-7.71449 0.982149,-2.05435 3.156723,-4.81809 4.252347,-5.40445 0.476202,-0.25486 0.493852,-0.0181 0.493852,6.62418 v 6.88847 h -3.704166 c -3.102976,0 -3.704167,-0.0639 -3.704167,-0.39371 z m 10.054164,-6.49476 c 0,-6.6423 0.0177,-6.87904 0.49385,-6.62418 1.0771,0.57645 3.19123,3.26911 4.20621,5.35724 0.98096,2.01816 2.70828,7.00196 2.70828,7.81416 0,0.26236 -0.85633,0.34125 -3.70417,0.34125 h -3.70417 z m 9.79084,5.76399 c -0.8218,-3.25702 -1.77779,-5.85097 -3.14925,-8.54512 l -1.52481,-2.99539 1.07963,0.54787 c 2.64893,1.34423 5.65287,3.91027 7.68047,6.56087 1.46182,1.91098 3.32825,5.06595 3.15897,5.33986 -0.0736,0.11901 -1.66994,0.21639 -3.54751,0.21639 h -3.41377 z m -33.333222,-2.44181 -1.691748,-1.70692 0.512379,-0.57169 c 0.86868,-0.96923 4.647163,-3.80399 6.614578,-4.96251 1.859507,-1.09498 6.430047,-3.07458 6.632114,-2.87251 0.05828,0.0583 -0.542353,0.53641 -1.334727,1.06252 -2.79119,1.85324 -5.90218,5.46315 -8.533284,9.90178 l -0.507563,0.85625 z m 41.975462,0.49344 c -1.6645,-3.24891 -5.40342,-7.54843 -8.29763,-9.54174 -0.77238,-0.53197 -1.35918,-1.01237 -1.30399,-1.06756 0.25428,-0.25428 5.194,1.9939 7.31664,3.32998 2.35181,1.48032 6.34149,4.63246 6.34149,5.01025 0,0.10881 -0.7637,0.95474 -1.69709,1.87984 l -1.6971,1.682 z M 58.956278,110.68672 c -3.245801,-3.23411 -5.967127,-6.08712 -6.04739,-6.34001 -0.236263,-0.7444 0.349949,-1.53812 1.136,-1.53812 0.56514,0 1.870078,1.16105 6.584182,5.85819 3.233642,3.22199 5.93521,6.07179 6.003486,6.33288 0.172602,0.66003 -0.526653,1.56727 -1.207974,1.56727 -0.385379,0 -2.456127,-1.88248 -6.468304,-5.88021 z m 74.965742,5.32067 c -0.21555,-0.30774 -0.32566,-0.75423 -0.24469,-0.99218 0.081,-0.23796 2.77968,-3.0818 5.99711,-6.31963 4.76932,-4.79956 5.98296,-5.88698 6.57038,-5.88698 0.80175,0 1.39034,0.7861 1.15166,1.53812 -0.0803,0.25289 -2.80159,3.10589 -6.04739,6.34001 -6.10416,6.08219 -6.62988,6.45881 -7.42707,5.32066 z m -39.590167,-7.25203 c -4.626568,-0.64188 -7.297923,-1.33716 -20.744336,-5.39921 -7.810716,-2.35955 -9.876457,-2.75449 -14.445248,-2.76174 -3.913153,-0.006 -4.568546,0.11461 -7.862328,1.4494 -0.781084,0.31654 -0.905862,0.29316 -1.521354,-0.28507 -0.368767,-0.34644 -0.670485,-0.70905 -0.670485,-0.80582 0,-0.38782 4.253313,-3.205139 6.35751,-4.211109 3.34257,-1.59802 5.883353,-2.18434 9.517491,-2.1963 6.226371,-0.0205 10.663176,1.56121 22.105456,7.880569 4.816766,2.66022 7.787954,3.99208 10.206008,4.57497 1.781974,0.42955 1.816087,0.4539 1.817918,1.29766 0.0019,0.8398 -0.0244,0.85926 -1.122612,0.83263 -0.618463,-0.015 -2.255572,-0.18419 -3.63802,-0.37598 z m 6.881037,-0.45665 c 0.002,-0.84453 0.0346,-0.86779 1.83493,-1.30184 2.37976,-0.57374 5.52105,-1.99631 10.59862,-4.79969 3.12383,-1.72472 4.172,-2.18957 4.39886,-1.95088 0.63704,0.67024 2.54444,4.71967 2.31937,4.92402 -0.35521,0.32251 -7.54187,2.29953 -10.55469,2.90356 -2.76704,0.55475 -6.60946,1.08472 -7.86442,1.08472 -0.65271,0 -0.73433,-0.0958 -0.73267,-0.85989 z m -2.109229,-3.09147 c -0.174448,-0.32595 -0.273892,-4.01756 -0.273892,-10.167549 0,-8.42521 0.05299,-9.70878 0.415774,-10.07156 0.531027,-0.53104 1.283257,-0.53104 1.814287,0 0.36278,0.36278 0.41577,1.64635 0.41577,10.07156 0,6.149999 -0.0994,9.841599 -0.27389,10.167549 -0.17511,0.3272 -0.55346,0.51178 -1.04902,0.51178 -0.495566,0 -0.873923,-0.18458 -1.049029,-0.51178 z m 30.036679,-4.31687 c -0.26709,-0.76398 -0.8286,-2.210369 -1.24778,-3.214199 -0.41919,-1.00383 -0.73019,-1.85642 -0.69112,-1.89466 0.22727,-0.2224 3.58943,-0.92698 5.61035,-1.1757 4.29627,-0.52877 8.86797,0.4067 13.09974,2.68046 1.98961,1.06905 5.30574,3.366039 5.30574,3.675159 0,0.0921 -0.30172,0.45087 -0.67048,0.79732 -0.61549,0.57822 -0.74027,0.6016 -1.52136,0.28506 -4.87495,-1.97555 -9.43567,-2.092259 -16.14116,-0.41305 -1.42466,0.35678 -2.74059,0.64868 -2.92429,0.64868 -0.18371,0 -0.55254,-0.62508 -0.81964,-1.38907 z m -41.007297,0.17954 c -0.346038,-0.34603 -0.415774,-1.186039 -0.415774,-5.008179 0,-3.82214 0.06974,-4.66215 0.415774,-5.00819 0.487556,-0.48755 0.75841,-0.51399 1.453703,-0.14188 0.477298,0.25544 0.511773,0.59943 0.511773,5.10646 0,4.979929 -0.09743,5.467569 -1.092351,5.467569 -0.251544,0 -0.64445,-0.18711 -0.873125,-0.41578 z m 22.391307,0.0983 c -0.22384,-0.22383 -0.3175,-1.747499 -0.3175,-5.165039 v -4.84755 l 0.66039,-0.30089 c 0.54565,-0.24862 0.7525,-0.21753 1.19062,0.17897 0.49162,0.44491 0.53024,0.8128 0.53024,5.05017 0,3.80204 -0.0699,4.640189 -0.41577,4.986069 -0.49518,0.49518 -1.20854,0.53772 -1.64798,0.0983 z"/></g></g></svg>