<svg xmlns="http://www.w3.org/2000/svg" xmlns:svg="http://www.w3.org/2000/svg" id="svg5" width="345.923" height="345.923" version="1.1" viewBox="0 0 91.525 91.525"><g id="layer1" transform="translate(-20.765249,-13.681612)"><g id="g2405" transform="translate(22.895851,5.5378124)"><path style="fill:#cec6a9;stroke-width:.264583" id="path1793" d="M 47.814931,94.11952 C 33.676025,86.05167 23.770512,72.35312 21.125858,57.21062 c -0.223744,-1.28109 -0.521478,-3.93002 -0.66163,-5.8865 -0.455,-6.35167 0.754311,-14.19996 3.047961,-19.78091 1.245689,-3.03103 3.921687,-8.25487 5.257875,-10.26393 2.322277,-3.49174 6.768919,-8.73637 7.642049,-9.01349 0.501764,-0.15926 3.491117,1.26424 6.434115,3.06386 3.009786,1.84046 6.752259,4.84489 9.636757,7.73633 9.554088,9.57709 14.367351,21.2581 14.363581,34.85809 -0.0024,8.5477 -1.792557,15.951 -5.764123,23.83748 -2.860011,5.67923 -8.324069,12.96285 -10.092512,13.45339 -0.745054,0.20666 -1.119516,0.0775 -3.175,-1.09542 z"/><path style="fill:#9ab9c9;stroke-width:.264583" id="path1791" d="M 48.017919,94.15204 C 40.228938,89.90654 31.262425,81.21287 27.708407,74.46053 c -2.626628,-4.99038 -3.787341,-7.35049 -3.787341,-7.70092 0,-0.21165 -0.290151,-1.07419 -0.64478,-1.91675 -0.736288,-1.74934 -2.080975,-6.84001 -1.888875,-7.15083 0.07029,-0.11374 -0.05767,-0.79266 -0.28436,-1.50873 -0.315148,-0.99549 -0.42124,-2.67206 -0.450721,-7.12277 -0.03628,-5.47662 0.176778,-8.02204 0.885835,-10.58334 0.120856,-0.43656 0.417576,-1.62718 0.659378,-2.64583 0.508223,-2.14101 1.671149,-4.89479 2.067075,-4.89479 0.149208,0 1.42992,1.14348 2.846027,2.54107 1.416107,1.39759 3.424782,3.18055 4.463723,3.96213 1.951631,1.46818 5.345647,3.55096 5.786504,3.55096 0.137833,0 0.629589,1.45852 1.092792,3.24115 3.241211,12.47376 4.225982,15.54564 5.835942,18.20461 0.401328,0.66283 0.801066,1.43673 0.888305,1.71979 0.130423,0.42319 1.2623,7.12698 4.129762,24.45946 0.156485,0.94588 0.459298,2.67229 0.672917,3.83645 0.447929,2.4411 0.472369,2.77951 0.200372,2.77441 -0.109141,-0.002 -1.082511,-0.4856 -2.163043,-1.07456 z m 3.414937,0.48297 C 51.430156,94.45311 51.24641,93.29225 51.024488,92.05532 50.802569,90.81839 50.459928,88.7348 50.26307,87.42511 49.620257,83.14853 46.984972,67.12574 46.411877,64.00949 46.104114,62.336 45.572851,58.86007 45.231293,56.28519 44.666397,52.02665 44.645325,51.5019 44.998108,50.47794 c 0.213304,-0.61912 0.633203,-2.26288 0.933111,-3.6528 0.634029,-2.93842 0.790898,-8.76164 0.281384,-10.44554 -0.290068,-0.95865 -0.26893,-1.07094 0.272524,-1.4478 2.62087,-1.82415 4.415782,-4.33139 5.892699,-8.23127 l 1.01704,-2.68555 1.537613,1.67486 c 5.097314,5.55228 9.317358,14.08233 10.945807,22.12496 3.186676,15.73845 -1.179285,31.81423 -12.248658,45.10042 -1.658593,1.99075 -2.186683,2.40417 -2.196772,1.71979 z M 43.157121,56.71676 c -0.523042,-1.6099 -1.860442,-6.43193 -2.971998,-10.71562 -1.111557,-4.28369 -2.273658,-8.38384 -2.582445,-9.11145 -1.662785,-3.91806 -4.529921,-7.2789 -8.530035,-9.99885 l -2.465355,-1.67637 0.775758,-1.41858 c 0.426667,-0.78023 0.826197,-1.46903 0.887844,-1.53067 0.248224,-0.24823 3.196527,1.97357 5.035278,3.7945 5.050946,5.00202 7.863628,11.43426 9.488413,21.69878 0.879782,5.55799 1.570276,11.14709 1.427768,11.55686 -0.06284,0.18067 -0.542189,-0.98869 -1.065228,-2.5986 z M 43.672064,45.6814 c -0.260996,-1.48846 -0.696172,-4.13504 -0.967058,-5.88129 -0.270883,-1.74625 -0.678323,-4.36563 -0.905417,-5.82083 -0.433512,-2.77789 -0.522629,-8.33526 -0.169714,-10.58334 0.11422,-0.7276 0.423986,-2.75166 0.688366,-4.49791 0.264377,-1.74625 0.515702,-3.2209 0.558498,-3.27699 0.101108,-0.13252 1.126538,0.52749 3.317206,2.13509 l 1.767673,1.29719 -1.438132,2.80489 c -2.001829,3.90431 -2.522823,5.72578 -2.526003,8.83125 -0.0028,2.71649 0.07686,3.22473 0.888653,5.67107 0.455586,1.37291 0.507593,2.05244 0.384728,5.02708 -0.133392,3.22957 -0.574495,6.37189 -0.955572,6.80733 -0.09278,0.10602 -0.382233,-1.02508 -0.643228,-2.51354 z M 35.562733,38.69388 C 33.333421,37.37507 30.45039,35.06002 27.513734,32.23061 l -2.93121,-2.82416 0.728944,-1.49249 c 0.68309,-1.39861 0.766307,-1.47284 1.322916,-1.18008 2.600224,1.36765 6.577351,5.04519 8.264832,7.64227 0.900773,1.38631 2.251017,4.32835 2.251017,4.90472 0,0.25551 -0.43563,0.0944 -1.5875,-0.58699 z M 45.25618,33.1109 c -0.247889,-1.49948 -0.199949,-3.58175 0.118287,-5.13787 0.310504,-1.51832 3.236746,-7.88438 3.624159,-7.88438 0.130225,0 0.939843,0.63893 1.799148,1.41985 l 1.562373,1.41985 -0.339246,1.29213 c -0.635998,2.42239 -2.819853,6.49739 -4.273434,7.97408 -0.748003,0.7599 -1.577956,1.49828 -1.844336,1.64084 -0.419846,0.22469 -0.505981,0.12823 -0.646951,-0.7245 z m -5.439389,-0.25498 c -0.7057,-1.55922 -3.388293,-5.29548 -5.083208,-7.07979 -0.978368,-1.02996 -2.615643,-2.46311 -3.638389,-3.18476 -1.022745,-0.72165 -1.864695,-1.4097 -1.870999,-1.52901 -0.01664,-0.31487 1.40439,-2.32748 2.980888,-4.22184 l 1.367219,-1.64288 0.312003,1.7179 c 0.428104,2.35716 1.172075,4.22953 2.730093,6.8709 0.727535,1.23342 1.690411,3.25748 2.139723,4.49791 1.272566,3.51324 1.999972,6.64251 1.06267,4.57157 z m -0.344953,-6.12418 c -0.251087,-0.63916 -1.106142,-2.30604 -1.900124,-3.70416 -1.836141,-3.23328 -2.538148,-5.33009 -2.538148,-7.58114 0,-1.58165 0.07415,-1.82264 0.777071,-2.52557 l 0.77707,-0.77707 1.008863,0.4667 c 0.554874,0.25668 1.663707,0.83251 2.464074,1.27962 l 1.455214,0.81292 -0.06234,1.30374 c -0.03429,0.71706 -0.300975,2.79203 -0.592638,4.61104 -0.291663,1.81901 -0.6208,4.20026 -0.731409,5.29166 l -0.201112,1.98438 z"/><path style="fill:#9db199;stroke-width:.264583" id="path1789" d="M 48.017919,94.15204 C 40.416524,90.00879 31.126023,81.02439 27.795967,74.59636 27.304942,73.64852 26.232215,71.59014 25.41213,70.02217 24.592045,68.4542 23.921066,66.93141 23.921066,66.63819 c 0,-0.29321 -0.25195,-1.02698 -0.559889,-1.63059 -0.600212,-1.17652 -2.163977,-7.0078 -1.965422,-7.32907 0.0657,-0.10631 -0.05972,-0.77916 -0.278707,-1.49523 -0.291613,-0.95353 -0.407351,-2.71805 -0.432483,-6.59361 -0.04435,-6.83863 -0.102302,-6.19291 1.092355,-12.17083 0.566652,-2.83546 1.966192,-6.48229 2.487698,-6.48229 0.149208,0 1.42992,1.14348 2.846027,2.54107 1.416107,1.39759 3.424782,3.18055 4.463723,3.96213 1.951631,1.46818 5.345647,3.55096 5.786504,3.55096 0.137833,0 0.629589,1.45852 1.092792,3.24115 3.241211,12.47376 4.225982,15.54564 5.835942,18.20461 0.401328,0.66283 0.801066,1.43673 0.888305,1.71979 0.130423,0.42319 1.2623,7.12698 4.129762,24.45946 0.156485,0.94588 0.459298,2.67229 0.672917,3.83645 0.447929,2.4411 0.472369,2.77951 0.200372,2.77441 -0.109141,-0.002 -1.082511,-0.4856 -2.163043,-1.07456 z m 2.742398,-3.7993 -0.75398,-4.6426 0.867373,-0.8949 c 0.791787,-0.81692 1.032851,-0.90597 2.766219,-1.02192 2.06499,-0.13814 4.442475,-1.0593 6.644796,-2.57453 0.663945,-0.45681 1.207174,-0.76191 1.207174,-0.67801 0,0.29749 -1.673635,3.46221 -2.729219,5.16075 -1.472573,2.36952 -5.224992,7.3566 -6.334773,8.41911 l -0.913612,0.87469 z M 49.206065,81.00896 C 48.94377,79.2991 48.077651,74.03058 47.281356,69.30115 46.485061,64.57172 45.558572,58.65426 45.222493,56.15123 c -0.555149,-4.13459 -0.575625,-4.65381 -0.223806,-5.67497 0.212984,-0.6182 0.632624,-2.2612 0.932532,-3.65112 0.634029,-2.93842 0.790898,-8.76164 0.281384,-10.44554 -0.290068,-0.95865 -0.26893,-1.07094 0.272524,-1.4478 2.623328,-1.82586 4.415732,-4.33126 5.897089,-8.24286 l 1.021426,-2.69713 1.151668,1.28956 c 0.633418,0.70927 1.800188,2.14882 2.592827,3.199 l 1.441159,1.90943 -1.195197,1.86463 c -2.84175,4.43342 -4.720164,8.61037 -5.584677,12.41842 -0.584216,2.57339 -0.780489,9.89734 -0.35529,13.25768 0.388104,3.06716 0.387664,3.03619 0.107518,7.56209 -0.237196,3.83203 0.06352,5.83718 1.375593,9.17222 l 0.913117,2.32097 -0.884558,2.04597 c -0.883867,2.04437 -2.733397,5.08604 -3.092638,5.08604 -0.104608,0 -0.404804,-1.39899 -0.667099,-3.10886 z m 3.554584,1.53707 c 0,-0.16246 0.340826,-0.9766 0.757391,-1.80919 0.416566,-0.8326 0.89575,-1.94121 1.064856,-2.46359 0.273058,-0.84349 0.58063,-1.08549 2.748338,-2.16241 2.813722,-1.39787 5.180354,-3.40561 6.968995,-5.91216 0.663779,-0.9302 1.258218,-1.69128 1.320977,-1.69128 0.177195,0 -0.124047,1.19781 -1.110818,4.41689 -1.528268,4.98557 -1.600555,5.10247 -4.223287,6.82967 -1.270109,0.83643 -2.977134,1.78984 -3.79339,2.11868 -1.853623,0.74677 -3.733062,1.08579 -3.733062,0.67339 z m 1.226355,-8.54852 c -1.144839,-3.23229 -1.318252,-4.19224 -1.30247,-7.2099 0.03035,-5.80255 1.36747,-9.26903 5.857579,-15.18581 1.429496,-1.88369 5.471115,-7.01628 6.121942,-7.77446 0.0973,-0.11335 0.435623,0.8687 0.751816,2.18234 l 0.574903,2.38843 -1.552993,1.55299 c -3.255246,3.25525 -4.623816,5.65377 -4.961771,8.69587 -0.111416,1.00293 -0.390115,1.82214 -0.813012,2.3898 -2.653107,3.56126 -2.822527,7.69143 -0.459544,11.2028 0.896765,1.33259 0.920932,1.42478 0.463616,1.76867 -0.64412,0.48435 -3.445917,1.9075 -3.755366,1.9075 -0.134906,0 -0.551021,-0.86321 -0.9247,-1.91823 z m 5.270243,-2.34095 c -1.556118,-2.35145 -1.884005,-4.93984 -0.942306,-7.43871 0.892509,-2.36835 1.500323,-2.91376 3.650943,-3.27613 1.026819,-0.17301 2.547967,-0.62635 3.380328,-1.00742 l 1.513382,-0.69285 -0.185325,2.69079 c -0.107963,1.56754 -0.358597,3.03212 -0.600411,3.50849 -1.062045,2.09222 -5.161976,7.30001 -5.74707,7.30001 -0.193638,0 -0.674931,-0.48788 -1.069541,-1.08418 z m 1.504815,-13.13119 c 0.197543,-2.17854 1.248614,-4.17245 3.470664,-6.58395 l 1.867474,-2.0267 0.202084,0.75562 c 0.111146,0.41559 0.281908,2.09078 0.37947,3.72265 l 0.177385,2.96704 -0.792422,0.79242 c -0.739423,0.73943 -2.14516,1.28569 -4.548111,1.76738 L 60.619272,60.1001 Z M 43.157121,56.71676 c -0.523042,-1.6099 -1.860442,-6.43193 -2.971998,-10.71562 -1.111557,-4.28369 -2.273658,-8.38384 -2.582445,-9.11145 -1.662785,-3.91806 -4.529921,-7.2789 -8.530035,-9.99885 l -2.465355,-1.67637 0.775758,-1.41858 c 0.426667,-0.78023 0.826197,-1.46903 0.887844,-1.53067 0.248224,-0.24823 3.196527,1.97357 5.035278,3.7945 5.050946,5.00202 7.863628,11.43426 9.488413,21.69878 0.879782,5.55799 1.570276,11.14709 1.427768,11.55686 -0.06284,0.18067 -0.542189,-0.98869 -1.065228,-2.5986 z m 9.443985,0.79846 c -0.112118,-0.5755 -0.199102,-2.89183 -0.193305,-5.1474 0.01598,-6.21683 0.779357,-9.6517 3.234079,-14.55209 1.875822,-3.74471 3.460827,-6.1568 3.839297,-5.84269 0.171908,0.14266 0.783458,1.15037 1.359001,2.23934 l 1.04644,1.97994 -0.590283,0.74556 c -1.605626,2.028 -3.598143,5.24612 -4.097954,6.61861 -0.436332,1.19819 -0.585226,2.34828 -0.67813,5.23801 -0.116646,3.62828 -0.13563,3.72668 -0.944395,4.89479 -0.453946,0.65564 -1.263105,2.02012 -1.79813,3.03218 l -0.972775,1.8401 z m 4.924041,-8.23421 c 0.0032,-2.05463 0.504722,-4.6082 1.208196,-6.15185 0.799259,-1.75382 3.57846,-5.66762 3.824346,-5.38561 0.312435,0.35834 1.580044,3.7636 1.580044,4.24458 0,0.25446 -0.651616,1.295 -1.448036,2.31232 -0.796419,1.01731 -2.180254,2.80216 -3.075188,3.96633 -0.894935,1.16416 -1.7316,2.15635 -1.859257,2.20486 -0.127656,0.0485 -0.231203,-0.48728 -0.230105,-1.19063 z M 43.672064,45.6814 c -0.260996,-1.48846 -0.696172,-4.13504 -0.967058,-5.88129 -0.270883,-1.74625 -0.678323,-4.36563 -0.905417,-5.82083 -0.433512,-2.77789 -0.522629,-8.33526 -0.169714,-10.58334 0.11422,-0.7276 0.423986,-2.75166 0.688366,-4.49791 0.264377,-1.74625 0.515702,-3.2209 0.558498,-3.27699 0.101108,-0.13252 1.126538,0.52749 3.317206,2.13509 l 1.767673,1.29719 -1.438132,2.80489 c -2.001829,3.90431 -2.522823,5.72578 -2.526003,8.83125 -0.0028,2.71649 0.07686,3.22473 0.888653,5.67107 0.455586,1.37291 0.507593,2.05244 0.384728,5.02708 -0.133392,3.22957 -0.574495,6.37189 -0.955572,6.80733 -0.09278,0.10602 -0.382233,-1.02508 -0.643228,-2.51354 z M 35.562733,38.69388 C 33.333421,37.37507 30.45039,35.06002 27.513734,32.23061 l -2.93121,-2.82416 0.728944,-1.49249 c 0.68309,-1.39861 0.766307,-1.47284 1.322916,-1.18008 2.600224,1.36765 6.577351,5.04519 8.264832,7.64227 0.900773,1.38631 2.251017,4.32835 2.251017,4.90472 0,0.25551 -0.43563,0.0944 -1.5875,-0.58699 z M 45.25618,33.1109 c -0.247889,-1.49948 -0.199949,-3.58175 0.118287,-5.13787 0.310504,-1.51832 3.236746,-7.88438 3.624159,-7.88438 0.130225,0 0.939843,0.63893 1.799148,1.41985 l 1.562373,1.41985 -0.339246,1.29213 c -0.635998,2.42239 -2.819853,6.49739 -4.273434,7.97408 -0.748003,0.7599 -1.577956,1.49828 -1.844336,1.64084 -0.419846,0.22469 -0.505981,0.12823 -0.646951,-0.7245 z m -5.439389,-0.25498 c -0.7057,-1.55922 -3.388293,-5.29548 -5.083208,-7.07979 -0.978368,-1.02996 -2.615643,-2.46311 -3.638389,-3.18476 -1.022745,-0.72165 -1.864695,-1.4097 -1.870999,-1.52901 -0.01664,-0.31487 1.40439,-2.32748 2.980888,-4.22184 l 1.367219,-1.64288 0.312003,1.7179 c 0.428104,2.35716 1.172075,4.22953 2.730093,6.8709 0.727535,1.23342 1.690411,3.25748 2.139723,4.49791 1.272566,3.51324 1.999972,6.64251 1.06267,4.57157 z m -0.344953,-6.12418 c -0.251087,-0.63916 -1.106142,-2.30604 -1.900124,-3.70416 -1.836141,-3.23328 -2.538148,-5.33009 -2.538148,-7.58114 0,-1.58165 0.07415,-1.82264 0.777071,-2.52557 l 0.77707,-0.77707 1.008863,0.4667 c 0.554874,0.25668 1.663707,0.83251 2.464074,1.27962 l 1.455214,0.81292 -0.06234,1.30374 c -0.03429,0.71706 -0.300975,2.79203 -0.592638,4.61104 -0.291663,1.81901 -0.6208,4.20026 -0.731409,5.29166 l -0.201112,1.98438 z"/><path style="fill:#6c94a0;stroke-width:.264583" id="path1787" d="m 47.071089,93.50389 c -1.575893,-0.93743 -3.946753,-2.52954 -5.268579,-3.53802 -2.678155,-2.04328 -5.793458,-4.79506 -5.622285,-4.96624 0.06122,-0.0612 1.305491,0.13204 2.765036,0.42948 1.459545,0.29744 3.527986,0.54279 4.596532,0.54523 l 1.942815,0.004 1.936525,1.896 1.936522,1.896 0.465961,2.60962 c 0.256278,1.43529 0.386484,2.65873 0.289345,2.71877 -0.09714,0.06 -1.465979,-0.65784 -3.041872,-1.59528 z m 4.528074,0.93268 c -0.447485,-1.20805 -1.471263,-8.52556 -1.250172,-8.93566 0.621517,-1.15285 1.458751,-1.58215 3.3377,-1.71145 2.016159,-0.13874 4.430585,-1.07943 6.598034,-2.57067 0.663945,-0.45681 1.207174,-0.76191 1.207174,-0.67801 0,0.76707 -3.088563,5.91028 -5.564105,9.26558 -2.460477,3.33489 -4.142129,5.1337 -4.328631,4.63021 z m -3.678555,-7.66034 c -1.292111,-1.13449 -3.652539,-4.07539 -4.788196,-5.9657 l -0.953736,-1.5875 -7.94e-4,-3.33112 c -7.94e-4,-4.06357 -0.513508,-6.30892 -2.213284,-9.69337 -0.709523,-1.41275 -1.428516,-3.38274 -1.774422,-4.86179 -1.380312,-5.90206 -4.321642,-12.66966 -7.14007,-16.42833 -1.709346,-2.27959 -5.271484,-5.27911 -8.60648,-7.24715 -0.442151,-0.26093 -0.457047,-0.41193 -0.165309,-1.67581 0.28099,-1.21731 1.544047,-4.72035 1.813173,-5.02876 0.05383,-0.0617 1.138807,0.89557 2.411062,2.12723 3.828371,3.70622 6.749224,5.94106 9.744606,7.45594 l 1.345999,0.68072 1.123945,4.44913 c 2.48923,9.85361 3.976482,14.34996 5.65402,17.09357 0.709673,1.16067 0.937268,2.25196 2.703817,12.96458 1.060905,6.43349 1.893705,11.73435 1.850667,11.7797 -0.04304,0.0453 -0.495339,-0.28375 -1.005112,-0.73134 z m -7.066209,-2.16365 c -2.067073,-0.33683 -5.850761,-1.29454 -6.516904,-1.64953 -0.692107,-0.36883 -2.439756,-2.40734 -4.410913,-5.14504 -2.147385,-2.98245 -2.149833,-3.19325 -0.02117,-1.82304 3.436072,2.2118 5.341481,2.9411 8.864452,3.3929 l 2.338623,0.29992 0.703842,1.22282 c 0.387111,0.67256 1.103849,1.78866 1.592749,2.48022 0.4889,0.69156 0.88891,1.31664 0.88891,1.38906 0,0.19183 -1.761363,0.10616 -3.439583,-0.16731 z m 8.873519,-1.09007 c -0.05814,-0.1819 -0.422415,-2.41433 -0.809503,-4.96094 -0.387088,-2.54662 -1.278964,-7.96569 -1.981943,-12.04238 -0.70298,-4.07669 -1.481545,-9.03851 -1.730145,-11.02625 -0.445834,-3.56476 -0.444426,-3.64232 0.103161,-5.6847 1.277456,-4.76463 1.713621,-10.18047 1.051052,-13.05087 l -0.31469,-1.36332 0.910002,-0.69031 c 2.433646,-1.84611 4.739505,-5.34291 5.920325,-8.97809 0.277146,-0.85321 0.565669,-1.32171 0.760783,-1.23536 0.399394,0.17675 3.26518,3.54961 4.193138,4.93508 l 0.70382,1.05082 -1.167508,1.82143 c -2.81318,4.38885 -4.695597,8.58093 -5.556988,12.37523 -0.584216,2.57339 -0.780489,9.89734 -0.35529,13.25768 0.388104,3.06716 0.387664,3.03619 0.107518,7.56209 -0.237196,3.83203 0.06352,5.83718 1.375593,9.17222 l 0.913117,2.32097 -0.88582,2.04465 c -0.920996,2.12584 -2.553846,4.82278 -2.919934,4.82278 -0.116041,0 -0.258548,-0.14883 -0.316688,-0.33073 z m 3.032731,-0.97648 c 0,-0.16246 0.340826,-0.9766 0.757391,-1.80919 0.416566,-0.8326 0.89575,-1.94121 1.064856,-2.46359 0.273058,-0.84349 0.58063,-1.08549 2.748338,-2.16241 2.8179,-1.39995 5.180642,-3.40601 6.977687,-5.92434 0.668559,-0.9369 1.258144,-1.66088 1.31019,-1.60883 0.166227,0.16623 -1.161389,4.82047 -2.064314,7.2369 l -0.872273,2.33441 -2.248958,1.51681 c -1.236927,0.83425 -2.963333,1.806 -3.836458,2.15945 -1.942428,0.78632 -3.836459,1.14217 -3.836459,0.72079 z M 37.58739,78.01952 c -0.705449,-0.11838 -1.332872,-0.26547 -1.394273,-0.32687 -0.0614,-0.0614 0.08053,-0.93281 0.315406,-1.93647 0.494023,-2.11102 0.356573,-4.10725 -0.400674,-5.81914 -0.584017,-1.32026 -2.40039,-3.3716 -3.730492,-4.21305 -0.632404,-0.40007 -1.22803,-1.16692 -1.83464,-2.36204 -1.191077,-2.34661 -3.021415,-3.97742 -6.410598,-5.71178 -1.498527,-0.76685 -2.803229,-1.51472 -2.899338,-1.66194 -0.197941,-0.30321 -0.598123,-4.39095 -0.44487,-4.5442 0.230722,-0.23072 10.949623,6.8036 13.420003,8.80693 0.637298,0.51681 1.696519,1.6632 2.353824,2.54753 1.390518,1.87078 3.561197,6.31276 4.018106,8.22245 0.401449,1.67791 0.667612,5.66981 0.438819,6.5814 -0.151257,0.60265 -0.305078,0.69052 -1.161492,0.66353 -0.54293,-0.0171 -1.564332,-0.12798 -2.269781,-0.24635 z m -4.919903,-1.77306 c -1.025359,-0.5457 -2.835508,-1.70656 -4.022553,-2.57968 -2.033054,-1.4954 -2.22501,-1.72454 -3.308774,-3.94955 -0.632781,-1.29912 -1.150522,-2.48975 -1.150537,-2.64583 -1.6e-5,-0.17884 0.80725,-0.28484 2.182813,-0.28663 1.200561,-0.002 2.839935,-0.10401 3.643052,-0.22768 l 1.460214,-0.22484 1.363316,1.22574 c 1.939023,1.74335 2.727715,3.45062 2.727715,5.90465 0,1.69592 -0.495152,3.77601 -0.898852,3.77601 -0.07266,0 -0.971034,-0.44648 -1.996394,-0.99219 z m 21.319517,-2.24895 c -1.144839,-3.23229 -1.318252,-4.19224 -1.30247,-7.2099 0.03264,-6.23992 1.468297,-9.60089 7.266406,-17.01113 4.364246,-5.57769 4.581847,-5.84564 4.759319,-5.86056 0.09661,-0.008 0.416092,1.0052 0.709965,2.25183 l 0.534312,2.2666 -1.534874,1.53487 c -3.236288,3.23629 -4.606306,5.64113 -4.943652,8.67775 -0.111416,1.00293 -0.390115,1.82214 -0.813012,2.3898 -2.653107,3.56126 -2.822527,7.69143 -0.459544,11.2028 0.896765,1.33259 0.920932,1.42478 0.463616,1.76867 -0.64412,0.48435 -3.445917,1.9075 -3.755366,1.9075 -0.134906,0 -0.551021,-0.86321 -0.9247,-1.91823 z m 5.270243,-2.34095 c -1.556118,-2.35145 -1.884005,-4.93984 -0.942306,-7.43871 0.892509,-2.36835 1.500323,-2.91376 3.650943,-3.27613 1.026819,-0.17301 2.548539,-0.62661 3.3816,-1.008 l 1.514658,-0.69343 -0.178718,2.54247 c -0.0983,1.39836 -0.354206,2.96248 -0.56869,3.47581 -0.763799,1.82802 -5.137648,7.48217 -5.787946,7.48217 -0.193638,0 -0.674931,-0.48788 -1.069541,-1.08418 z M 24.825588,65.57712 c -0.448399,-0.1302 -1.00602,-0.4475 -1.239159,-0.70511 -0.436296,-0.4821 -1.660573,-4.37541 -1.955136,-6.21751 l -0.165938,-1.03772 2.423382,1.21709 c 1.332861,0.66941 2.895747,1.64385 3.473082,2.16544 0.988514,0.89306 2.644664,3.40588 2.644664,4.01264 0,0.32303 -2.289802,0.86038 -3.518753,0.82576 -0.465779,-0.0131 -1.213744,-0.13039 -1.662142,-0.26059 z m 10.054583,-6.14518 c -0.884731,-0.75657 -2.0528,-1.73277 -2.595708,-2.16933 -0.852858,-0.6858 -1.059734,-1.08162 -1.521129,-2.91042 -0.793422,-3.14483 -2.282185,-6.11804 -3.81968,-7.62829 -1.116979,-1.09719 -3.589925,-2.53034 -5.505958,-3.19089 -0.443377,-0.15285 -0.479925,-0.35573 -0.327905,-1.82017 0.0941,-0.90648 0.261786,-1.98328 0.372635,-2.3929 l 0.201545,-0.74475 2.024059,1.32132 c 2.487936,1.62414 5.76752,4.70097 7.097369,6.65859 1.35137,1.98929 3.247377,5.76269 4.183665,8.32626 0.991707,2.7153 1.907392,5.95703 1.677761,5.93964 -0.09793,-0.007 -0.901922,-0.63249 -1.786654,-1.38906 z m 25.881891,-0.90657 c 0.197543,-2.17854 1.248614,-4.17245 3.470664,-6.58395 l 1.867474,-2.0267 0.202084,0.75562 c 0.111146,0.41559 0.281908,2.09078 0.37947,3.72265 l 0.177385,2.96704 -0.792422,0.79242 c -0.739423,0.73943 -2.14516,1.28569 -4.548111,1.76738 L 60.619272,60.1001 Z M 43.120405,56.3532 C 42.597593,54.73598 41.38872,50.34995 40.434021,46.60646 38.266613,38.10778 38.108237,37.60149 36.854564,35.16387 35.103556,31.75923 31.5647,28.10389 27.993266,26.01089 c -0.638981,-0.37447 -1.161783,-0.73303 -1.161783,-0.7968 0,-0.39061 1.381204,-2.74419 1.610431,-2.74419 0.47097,0 2.565133,1.55157 4.358737,3.2294 5.062083,4.73533 7.971238,10.87416 9.628821,20.31852 0.627406,3.57476 1.875028,13.04226 1.736902,13.18039 -0.05247,0.0525 -0.523155,-1.22779 -1.045969,-2.84501 z m 9.480701,1.16202 c -0.112118,-0.5755 -0.199102,-2.89183 -0.193305,-5.1474 0.01598,-6.21683 0.779357,-9.6517 3.234079,-14.55209 1.875822,-3.74471 3.460827,-6.1568 3.839297,-5.84269 0.171908,0.14266 0.783458,1.15037 1.359001,2.23934 l 1.04644,1.97994 -0.590283,0.74556 c -1.605626,2.028 -3.598143,5.24612 -4.097954,6.61861 -0.436332,1.19819 -0.585226,2.34828 -0.67813,5.23801 -0.116646,3.62828 -0.13563,3.72668 -0.944395,4.89479 -0.453946,0.65564 -1.263105,2.02012 -1.79813,3.03218 l -0.972775,1.8401 z M 27.492511,54.13448 c -1.16393,-0.776 -2.957675,-1.90831 -3.986099,-2.51625 -3.185296,-1.88293 -3.337603,-2.18702 -2.855832,-5.70192 0.193141,-1.40912 0.216289,-1.4109 2.701142,-0.20776 2.005501,0.97105 3.651402,2.51912 4.514658,4.24631 0.852173,1.70501 1.961714,4.9325 1.830754,5.32538 -0.04861,0.14584 -1.040692,-0.36975 -2.204623,-1.14576 z m 30.032636,-4.85347 c 0.0032,-2.05463 0.504722,-4.6082 1.208196,-6.15185 0.799259,-1.75382 3.57846,-5.66762 3.824346,-5.38561 0.312435,0.35834 1.580044,3.7636 1.580044,4.24458 0,0.25446 -0.651616,1.295 -1.448036,2.31232 -0.796419,1.01731 -2.180254,2.80216 -3.075188,3.96633 -0.894935,1.16416 -1.7316,2.15635 -1.859257,2.20486 -0.127656,0.0485 -0.231203,-0.48728 -0.230105,-1.19063 z M 43.660541,45.13874 c -0.264803,-1.48104 -0.644133,-3.82389 -0.842955,-5.20634 -0.198823,-1.38245 -0.5638,-3.5851 -0.811059,-4.89479 -0.686591,-3.63676 -0.629986,-10.50705 0.118642,-14.39992 0.319723,-1.66256 0.581314,-3.41873 0.581314,-3.9026 0,-0.57617 0.127362,-0.87977 0.36907,-0.87977 0.281021,0 3.951581,2.43473 4.643241,3.07992 0.06464,0.0603 -0.544031,1.44581 -1.352592,3.07892 -2.240936,4.52617 -2.473209,5.37403 -2.444335,8.92241 0.0204,2.50797 0.135652,3.34495 0.655754,4.7625 0.535877,1.46053 0.63027,2.19841 0.626168,4.89479 -0.0046,3.01763 -0.479999,6.87811 -0.877255,7.12363 -0.101494,0.0627 -0.401193,-1.09771 -0.665993,-2.57875 z m -8.320372,-6.72091 c -2.273423,-1.3449 -5.460735,-3.93315 -8.284083,-6.72708 l -2.355582,-2.33103 0.684355,-1.35051 c 0.781207,-1.54164 0.730199,-1.54252 3.105534,0.0539 2.205361,1.48215 5.402972,4.7437 6.625,6.75747 0.80004,1.31837 2.187929,4.58268 1.948423,4.58268 -0.03185,0 -0.807494,-0.44343 -1.723647,-0.9854 z m 10.108662,-4.89332 c -0.380535,-0.61571 -0.176557,-5.30873 0.290729,-6.68898 0.533226,-1.57503 3.060653,-6.75131 3.289266,-6.73656 0.08797,0.006 0.874323,0.65332 1.747448,1.43922 l 1.5875,1.42891 -0.635756,1.80192 c -1.078336,3.05631 -2.481059,5.67535 -3.831328,7.15351 -1.507718,1.65052 -2.155751,2.07462 -2.447859,1.60198 z m -7.240265,-3.4563 c -1.938569,-2.99472 -4.948843,-6.19268 -7.389183,-7.84989 l -1.639828,-1.11358 0.455484,-0.70648 c 0.811639,-1.2589 3.672952,-4.80639 3.877173,-4.80696 0.10914,-3.2e-4 0.19985,0.32686 0.201578,0.72704 0.0078,1.79927 1.169913,4.75957 3.297864,8.40052 0.510298,0.87312 1.219116,2.36141 1.575151,3.30729 0.692736,1.8404 1.514275,4.55202 1.406799,4.64336 -0.03589,0.0305 -0.839153,-1.14009 -1.785038,-2.6013 z m 0.713129,-4.68789 c -0.553665,-1.09141 -1.51747,-2.95657 -2.14179,-4.1448 -1.13542,-2.16098 -1.746339,-4.32914 -1.746339,-6.19778 0,-1.08249 1.043167,-2.62201 1.776658,-2.62201 0.223686,0 1.344079,0.50602 2.489761,1.12448 l 2.08306,1.12448 2.59e-4,1.09819 c 1.46e-4,0.604 -0.245488,2.509 -0.545851,4.23333 -0.300361,1.72433 -0.627782,4.08765 -0.727604,5.25182 l -0.181491,2.11666 z"/><path style="fill:#9b8f59;stroke-width:.264583" id="path1785" d="m 48.101874,94.08254 c -3.22942,-1.74089 -7.726132,-5.04967 -10.81935,-7.96112 -1.270888,-1.1962 -1.291699,-1.2383 -0.529166,-1.07036 3.543027,0.78033 4.755851,0.96345 6.526469,0.9854 l 2.028552,0.0252 2.035773,1.90791 2.035773,1.90793 0.45189,2.54413 c 0.301559,1.69778 0.357783,2.54214 0.169008,2.53814 -0.155586,-0.003 -1.010113,-0.39804 -1.898949,-0.87719 z m 3.608337,0.61193 c -0.0043,-0.0764 -0.305551,-1.8359 -0.669353,-3.90992 -0.822042,-4.68642 -0.820703,-4.94588 0.03074,-5.95776 0.616728,-0.73294 0.854721,-0.82542 2.182812,-0.84814 1.864133,-0.0319 3.633203,-0.62018 5.967969,-1.98454 0.999714,-0.5842 1.868479,-1.01136 1.930587,-0.94925 0.115449,0.11544 -1.844857,3.68153 -3.070942,5.5865 -1.594135,2.47681 -6.347454,8.49182 -6.371813,8.06311 z M 47.534464,86.29962 C 45.799695,84.57396 44.264968,82.60898 43.197891,80.7473 42.34348,79.25665 42.323575,79.15007 42.295553,75.91574 42.260413,71.86051 41.797319,69.85637 40.06221,66.25055 39.359879,64.791 38.545623,62.58835 38.252751,61.35576 36.257059,52.95666 32.801749,46.084 28.590195,42.1368 c -1.688439,-1.58246 -5.502324,-4.37831 -6.364657,-4.66575 -0.190753,-0.0636 -0.164906,-0.55045 0.08112,-1.52797 0.3194,-1.26905 1.547501,-4.68772 1.791272,-4.98638 0.05035,-0.0617 1.132481,0.89557 2.404737,2.12723 3.82837,3.70622 6.749223,5.94106 9.744606,7.45594 l 1.345998,0.68072 1.123946,4.44913 c 2.48923,9.85361 3.976482,14.34996 5.65402,17.09357 0.709673,1.16067 0.937268,2.25196 2.703816,12.96458 1.060906,6.43349 1.891933,11.73612 1.846731,11.78364 -0.0452,0.0475 -0.669496,-0.49783 -1.387319,-1.21189 z m -6.018606,-1.67747 c -0.873125,-0.12369 -2.873791,-0.5411 -4.445923,-0.92758 l -2.858423,-0.70269 -1.335779,-1.51752 c -1.496755,-1.7004 -4.45675,-5.76018 -4.45675,-6.11265 0,-0.12598 0.844131,0.31701 1.875848,0.98443 1.031716,0.66741 2.601739,1.50844 3.488939,1.86894 1.711325,0.69537 4.947022,1.40482 6.407189,1.40482 0.79342,0 0.958893,0.14579 1.726769,1.52136 0.467093,0.83674 1.149207,1.92121 1.515811,2.40993 0.540568,0.72064 0.59736,0.93241 0.300477,1.12043 -0.201343,0.12751 -0.425606,0.21915 -0.498367,0.20364 -0.07276,-0.0155 -0.846666,-0.12942 -1.719791,-0.25311 z m 8.343889,-0.85975 c -0.0052,-0.12272 -0.366702,-2.42293 -0.803264,-5.11159 -0.436563,-2.68865 -0.79375,-5.239 -0.79375,-5.66744 0,-0.42844 -0.115607,-0.98572 -0.256905,-1.23841 -0.320297,-0.57279 -2.233687,-11.69276 -2.818173,-16.37824 -0.425971,-3.41475 -0.423582,-3.52422 0.121232,-5.55625 1.278057,-4.76683 1.714352,-10.18213 1.051653,-13.0531 l -0.31469,-1.36332 0.910002,-0.69031 c 2.433646,-1.84611 4.739505,-5.34291 5.920325,-8.97809 0.277146,-0.85321 0.565669,-1.32171 0.760783,-1.23536 0.410776,0.18179 3.068828,3.35598 4.007048,4.78513 l 0.733285,1.11698 -1.714651,2.85546 c -3.164991,5.27075 -4.284017,7.95121 -5.110236,12.24079 -0.582862,3.02612 -0.658083,10.37607 -0.139145,13.5963 0.270524,1.67872 0.271704,2.68791 0.006,5.15938 -0.399219,3.71378 -0.118367,6.11601 1.113774,9.52656 1.111771,3.07735 1.087591,3.70764 -0.245121,6.3892 -1.033396,2.07931 -2.40629,4.11604 -2.428197,3.60231 z M 47.930876,62.89839 c -0.04812,-1.35343 -0.08771,-0.31765 -0.08799,2.30172 -2.65e-4,2.61938 0.03909,3.72673 0.08748,2.46078 0.04839,-1.26595 0.04862,-3.40907 5.29e-4,-4.7625 z m 0.507085,-9.80297 c -0.0734,-0.1819 -0.133453,-0.0331 -0.133453,0.33073 0,0.3638 0.06005,0.51263 0.133453,0.33073 0.0734,-0.1819 0.0734,-0.47956 0,-0.66146 z m 0.534678,-3.95221 c -0.08446,-0.21107 -0.147156,-0.14837 -0.159851,0.15985 -0.01148,0.27892 0.05104,0.43519 0.138965,0.34727 0.08792,-0.0879 0.09732,-0.31613 0.02088,-0.50712 z m 4.847439,31.19959 c 0.58148,-1.24084 1.057238,-2.38887 1.057238,-2.55116 0,-0.16229 0.62997,-0.57368 1.399934,-0.91419 3.399404,-1.50338 6.428981,-3.97223 8.248669,-6.72196 0.411173,-0.62132 0.798899,-1.07836 0.861615,-1.01565 0.157687,0.15769 -0.882396,3.80748 -1.844048,6.47102 -0.748543,2.07327 -0.894828,2.28037 -2.386332,3.37836 -2.169414,1.59703 -5.701853,3.30619 -7.176694,3.47243 l -1.21762,0.13724 z M 37.679399,77.94074 c -1.567864,-0.32884 -1.555499,-0.30411 -1.07868,-2.1573 0.947355,-3.68194 -0.69527,-7.83956 -3.923861,-9.93162 -0.800307,-0.51858 -1.424986,-1.15489 -1.585329,-1.61485 -0.931694,-2.67266 -3.506183,-5.05794 -7.567338,-7.01117 -1.164167,-0.55991 -2.157912,-1.04021 -2.208323,-1.06733 -0.154685,-0.0832 -0.621497,-4.35632 -0.490242,-4.48757 0.439475,-0.43948 12.377538,7.6626 14.392441,9.7678 2.154463,2.25102 4.562846,6.53139 5.21202,9.26322 0.416703,1.75354 0.688639,4.92311 0.532453,6.206 -0.164555,1.35162 -0.191469,1.38838 -0.998522,1.36355 -0.456176,-0.014 -1.484254,-0.16286 -2.284619,-0.33073 z m -4.169315,-1.24029 c -0.908206,-0.36495 -4.808973,-2.99319 -6.127322,-4.12844 -0.839598,-0.72299 -1.454018,-1.6242 -2.182812,-3.20167 -0.557866,-1.2075 -1.014405,-2.28259 -1.014533,-2.38909 -1.28e-4,-0.1065 1.101201,-0.19364 2.447396,-0.19364 1.346195,0 2.933927,-0.0964 3.528292,-0.21429 1.002741,-0.19884 1.174443,-0.14013 2.38125,0.81426 2.437414,1.92762 3.50954,5.12161 2.763311,8.23224 -0.340565,1.41964 -0.585346,1.56695 -1.795582,1.08063 z m 20.709263,-2.43836 c -1.418148,-3.13332 -1.798105,-7.45898 -1.02839,-11.70781 0.676606,-3.73487 1.96125,-6.22303 5.87402,-11.37709 2.607217,-3.43433 5.367906,-6.85864 5.607759,-6.95576 0.195053,-0.079 1.052497,3.01727 1.052497,3.80059 0,0.24214 -1.002827,1.49404 -2.228501,2.78202 -2.58146,2.71267 -3.702299,4.75301 -4.129326,7.5169 -0.213868,1.38423 -0.519361,2.1912 -1.209355,3.19451 -2.312847,3.3631 -2.249598,7.84293 0.158475,11.22476 0.605237,0.84998 0.607619,0.87678 0.111001,1.24943 -0.71178,0.53409 -2.945209,1.66151 -3.29147,1.66151 -0.158408,0 -0.570928,-0.62508 -0.91671,-1.38906 z m 4.911524,-3.07734 c -1.140663,-1.77757 -1.535699,-3.78066 -1.11571,-5.65737 0.335293,-1.49826 1.636037,-3.84625 2.219227,-4.00596 0.182308,-0.0499 1.105376,-0.23298 2.051261,-0.4068 0.945886,-0.17381 2.34487,-0.59902 3.108854,-0.9449 1.609289,-0.72858 1.52164,-0.92013 1.131531,2.47287 -0.199419,1.73444 -0.432716,2.49666 -1.093272,3.57187 -1.757267,2.86037 -4.557876,6.26169 -5.155808,6.26169 -0.174564,0 -0.690303,-0.58113 -1.146083,-1.2914 z M 24.228368,65.16608 c -0.485827,-0.2484 -0.99151,-0.73619 -1.123738,-1.08397 -0.495736,-1.30388 -1.583722,-5.96274 -1.428689,-6.11778 0.22756,-0.22756 3.444522,1.44435 5.02325,2.61066 1.465226,1.08247 3.495546,4.14582 3.045818,4.59555 -0.140862,0.14086 -1.240984,0.2991 -2.444716,0.35164 -1.684579,0.0735 -2.392026,-0.008 -3.071925,-0.3561 z M 35.695024,59.99265 C 35.403983,59.69246 34.314046,58.80072 33.272942,58.011 31.396009,56.58727 31.376111,56.55906 30.916288,54.66992 29.977357,50.81241 28.486993,47.8876 26.629053,46.25631 25.820956,45.54679 22.71446,43.90302 21.47367,43.52839 c -0.258255,-0.078 -0.463021,-0.39716 -0.463021,-0.72174 0,-1.15213 0.588856,-3.93258 0.83286,-3.93258 0.588457,0 4.47826,2.8884 6.208056,4.60984 3.155811,3.14056 5.569716,7.42656 7.50387,13.32346 0.586097,1.7869 1.065631,3.36448 1.065631,3.50572 0,0.39777 -0.345697,0.27815 -0.926042,-0.32044 z m 25.118158,-1.47423 c 0.275937,-1.9821 1.614998,-4.42379 3.552558,-6.47784 l 1.756368,-1.86197 0.173177,1.02846 c 0.09525,0.56565 0.25645,2.10595 0.358222,3.42288 0.178782,2.31338 0.16206,2.42173 -0.493995,3.20141 -0.757436,0.90017 -2.298708,1.55027 -4.23449,1.78611 l -1.286669,0.15676 z M 43.120405,56.3532 C 42.597593,54.73598 41.38872,50.34995 40.434021,46.60646 38.266613,38.10778 38.108237,37.60149 36.854564,35.16387 35.103556,31.75923 31.5647,28.10389 27.993266,26.01089 c -0.638981,-0.37447 -1.161783,-0.73303 -1.161783,-0.7968 0,-0.39061 1.381204,-2.74419 1.610431,-2.74419 0.47097,0 2.565133,1.55157 4.358737,3.2294 5.062083,4.73533 7.971238,10.87416 9.628821,20.31852 0.627406,3.57476 1.875028,13.04226 1.736902,13.18039 -0.05247,0.0525 -0.523155,-1.22779 -1.045969,-2.84501 z m 9.49684,-0.43837 c -0.10796,-1.15049 -0.125666,-3.69915 -0.03935,-5.66368 0.193775,-4.41012 1.010118,-7.83609 2.710929,-11.37708 1.605584,-3.34273 3.887499,-7.18563 4.122258,-6.94216 0.103569,0.1074 0.68072,1.11195 1.282563,2.23233 l 1.094258,2.03704 -1.562931,2.064 c -3.169695,4.18589 -3.763446,5.80947 -3.923651,10.72907 l -0.109855,3.37341 -1.234025,2.05055 c -0.678714,1.1278 -1.438749,2.39655 -1.688968,2.81944 l -0.454943,0.76889 z m -25.82494,-2.29446 c -1.403996,-0.90719 -3.308996,-2.12568 -4.233334,-2.70776 l -1.680613,-1.05833 -0.07563,-2.5713 -0.07563,-2.57129 1.027396,0.36248 c 2.792392,0.98521 5.023644,2.70671 5.97683,4.61134 0.513264,1.02559 0.929254,2.18335 1.890676,5.262 0.172157,0.55127 -0.173408,0.3892 -2.829703,-1.32714 z m 31.00381,-5.00984 c -0.01061,-2.24146 0.406169,-4.21892 1.236617,-5.86742 0.911614,-1.80963 3.28231,-5.00782 3.518974,-4.74728 0.108305,0.11923 0.520417,1.03836 0.915805,2.04252 0.55421,1.40751 0.65754,1.953 0.451075,2.38125 -0.147296,0.30553 -1.360254,1.92473 -2.695461,3.59822 -1.335207,1.67349 -2.65062,3.34036 -2.923138,3.70416 l -0.49549,0.66146 -0.0084,-1.77291 z M 43.660541,45.13874 c -0.264803,-1.48104 -0.644133,-3.82389 -0.842955,-5.20634 -0.198823,-1.38245 -0.5638,-3.5851 -0.811059,-4.89479 -0.686591,-3.63676 -0.629986,-10.50705 0.118642,-14.39992 0.319723,-1.66256 0.581314,-3.41873 0.581314,-3.9026 0,-0.57617 0.127362,-0.87977 0.36907,-0.87977 0.281021,0 3.951581,2.43473 4.643241,3.07992 0.06464,0.0603 -0.544031,1.44581 -1.352592,3.07892 -2.240936,4.52617 -2.473209,5.37403 -2.444335,8.92241 0.0204,2.50797 0.135652,3.34495 0.655754,4.7625 0.535877,1.46053 0.63027,2.19841 0.626168,4.89479 -0.0046,3.01763 -0.479999,6.87811 -0.877255,7.12363 -0.101494,0.0627 -0.401193,-1.09771 -0.665993,-2.57875 z m -8.320372,-6.72091 c -2.273423,-1.3449 -5.460735,-3.93315 -8.284083,-6.72708 l -2.355582,-2.33103 0.684355,-1.35051 c 0.781207,-1.54164 0.730199,-1.54252 3.105534,0.0539 2.205361,1.48215 5.402972,4.7437 6.625,6.75747 0.80004,1.31837 2.187929,4.58268 1.948423,4.58268 -0.03185,0 -0.807494,-0.44343 -1.723647,-0.9854 z m 10.108662,-4.89332 c -0.380535,-0.61571 -0.176557,-5.30873 0.290729,-6.68898 0.533226,-1.57503 3.060653,-6.75131 3.289266,-6.73656 0.08797,0.006 0.874323,0.65332 1.747448,1.43922 l 1.5875,1.42891 -0.635756,1.80192 c -1.078336,3.05631 -2.481059,5.67535 -3.831328,7.15351 -1.507718,1.65052 -2.155751,2.07462 -2.447859,1.60198 z m -7.240265,-3.4563 c -1.938569,-2.99472 -4.948843,-6.19268 -7.389183,-7.84989 l -1.639828,-1.11358 0.455484,-0.70648 c 0.811639,-1.2589 3.672952,-4.80639 3.877173,-4.80696 0.10914,-3.2e-4 0.19985,0.32686 0.201578,0.72704 0.0078,1.79927 1.169913,4.75957 3.297864,8.40052 0.510298,0.87312 1.219116,2.36141 1.575151,3.30729 0.692736,1.8404 1.514275,4.55202 1.406799,4.64336 -0.03589,0.0305 -0.839153,-1.14009 -1.785038,-2.6013 z m 0.713129,-4.68789 c -0.553665,-1.09141 -1.51747,-2.95657 -2.14179,-4.1448 -1.13542,-2.16098 -1.746339,-4.32914 -1.746339,-6.19778 0,-1.08249 1.043167,-2.62201 1.776658,-2.62201 0.223686,0 1.344079,0.50602 2.489761,1.12448 l 2.08306,1.12448 2.59e-4,1.09819 c 1.46e-4,0.604 -0.245488,2.509 -0.545851,4.23333 -0.300361,1.72433 -0.627782,4.08765 -0.727604,5.25182 l -0.181491,2.11666 z"/><path style="fill:#387590;stroke-width:.264583" id="path1783" d="m 48.101874,94.08254 c -3.22942,-1.74089 -7.726132,-5.04967 -10.81935,-7.96112 -1.270888,-1.1962 -1.291699,-1.2383 -0.529166,-1.07036 3.543027,0.78033 4.755851,0.96345 6.526469,0.9854 l 2.028552,0.0252 2.008899,1.88273 2.0089,1.88273 0.393959,2.2386 c 0.449083,2.55184 0.472855,2.90242 0.196241,2.89405 -0.10914,-0.003 -0.925668,-0.39804 -1.814504,-0.87719 z m 3.608337,0.61193 c -0.0043,-0.0764 -0.305551,-1.8359 -0.669353,-3.90992 -0.822042,-4.68642 -0.820703,-4.94588 0.03074,-5.95776 0.616728,-0.73294 0.854721,-0.82542 2.182812,-0.84814 1.864133,-0.0319 3.633203,-0.62018 5.967969,-1.98454 0.999714,-0.5842 1.868479,-1.01136 1.930587,-0.94925 0.115449,0.11544 -1.844857,3.68153 -3.070942,5.5865 -1.594135,2.47681 -6.347454,8.49182 -6.371813,8.06311 z M 47.369505,86.14785 C 45.641222,84.37268 44.225006,82.53925 43.197891,80.7473 42.34348,79.25665 42.323575,79.15007 42.295553,75.91574 42.260413,71.86051 41.797319,69.85637 40.06221,66.25055 39.359879,64.791 38.545623,62.58835 38.252751,61.35576 35.521426,49.86066 30.626226,42.2863 23.1955,38.05762 22.578157,37.7063 22.072141,37.25875 22.07102,37.06306 c -0.0029,-0.51142 1.022883,-3.80399 1.331706,-4.27441 0.529498,-0.80655 7.232985,6.82153 10.694881,12.17 4.886548,7.5495 10.239156,19.7072 12.406213,28.17896 0.527211,2.06106 2.350606,13.57188 2.21402,13.97679 -0.05764,0.17089 -0.664398,-0.26406 -1.348335,-0.96655 z m -5.853647,-1.5257 c -0.873125,-0.12369 -2.873791,-0.5411 -4.445923,-0.92758 l -2.858423,-0.70269 -1.335779,-1.51752 c -1.496755,-1.7004 -4.45675,-5.76018 -4.45675,-6.11265 0,-0.12598 0.844131,0.31701 1.875848,0.98443 1.031716,0.66741 2.601739,1.50844 3.488939,1.86894 1.711325,0.69537 4.947022,1.40482 6.407189,1.40482 0.79342,0 0.958893,0.14579 1.726769,1.52136 0.467093,0.83674 1.149207,1.92121 1.515811,2.40993 0.540568,0.72064 0.59736,0.93241 0.300477,1.12043 -0.201343,0.12751 -0.425606,0.21915 -0.498367,0.20364 -0.07276,-0.0155 -0.846666,-0.12942 -1.719791,-0.25311 z m 8.343889,-0.85502 c -0.0052,-0.12012 -0.396467,-2.50137 -0.86941,-5.29167 -0.853803,-5.03731 -0.859896,-5.13701 -0.859896,-14.0691 0,-7.22951 0.09486,-9.69717 0.483116,-12.56771 1.190247,-8.79997 3.270401,-16.18725 6.315998,-22.43009 1.201156,-2.46212 1.220187,-2.46435 2.60567,-0.30526 l 0.834887,1.30106 -1.71106,2.84948 c -3.161128,5.26432 -4.280704,7.94667 -5.106646,12.23481 -0.582862,3.02612 -0.658083,10.37607 -0.139145,13.5963 0.270524,1.67872 0.271704,2.68791 0.006,5.15938 -0.399219,3.71378 -0.118367,6.11601 1.113774,9.52656 1.111771,3.07735 1.087591,3.70764 -0.245121,6.3892 -1.029385,2.07124 -2.406015,4.11619 -2.428197,3.60704 z m 3.960331,-3.42433 c 0.58148,-1.24084 1.057238,-2.38887 1.057238,-2.55116 0,-0.16229 0.62997,-0.57368 1.399934,-0.91419 3.399404,-1.50338 6.428981,-3.97223 8.248669,-6.72196 0.411173,-0.62132 0.798899,-1.07836 0.861615,-1.01565 0.157687,0.15769 -0.882396,3.80748 -1.844048,6.47102 -0.748543,2.07327 -0.894828,2.28037 -2.386332,3.37836 -2.169414,1.59703 -5.701853,3.30619 -7.176694,3.47243 l -1.21762,0.13724 z M 37.679399,77.94074 c -1.567864,-0.32884 -1.555499,-0.30411 -1.07868,-2.1573 0.947355,-3.68194 -0.69527,-7.83956 -3.923861,-9.93162 -0.800307,-0.51858 -1.424986,-1.15489 -1.585329,-1.61485 -0.931694,-2.67266 -3.506183,-5.05794 -7.567338,-7.01117 -1.164167,-0.55991 -2.157912,-1.04021 -2.208323,-1.06733 -0.154685,-0.0832 -0.621497,-4.35632 -0.490242,-4.48757 0.439475,-0.43948 12.377538,7.6626 14.392441,9.7678 2.154463,2.25102 4.562846,6.53139 5.21202,9.26322 0.416703,1.75354 0.688639,4.92311 0.532453,6.206 -0.164555,1.35162 -0.191469,1.38838 -0.998522,1.36355 -0.456176,-0.014 -1.484254,-0.16286 -2.284619,-0.33073 z m -4.169315,-1.24029 c -0.908206,-0.36495 -4.808973,-2.99319 -6.127322,-4.12844 -0.839598,-0.72299 -1.454018,-1.6242 -2.182812,-3.20167 -0.557866,-1.2075 -1.014405,-2.28259 -1.014533,-2.38909 -1.28e-4,-0.1065 1.101201,-0.19364 2.447396,-0.19364 1.346195,0 2.933927,-0.0964 3.528292,-0.21429 1.002741,-0.19884 1.174443,-0.14013 2.38125,0.81426 2.437414,1.92762 3.50954,5.12161 2.763311,8.23224 -0.340565,1.41964 -0.585346,1.56695 -1.795582,1.08063 z m 20.709263,-2.43836 c -1.418148,-3.13332 -1.798105,-7.45898 -1.02839,-11.70781 0.676606,-3.73487 1.96125,-6.22303 5.87402,-11.37709 2.607217,-3.43433 5.367906,-6.85864 5.607759,-6.95576 0.195053,-0.079 1.052497,3.01727 1.052497,3.80059 0,0.24214 -1.002827,1.49404 -2.228501,2.78202 -2.58146,2.71267 -3.702299,4.75301 -4.129326,7.5169 -0.213868,1.38423 -0.519361,2.1912 -1.209355,3.19451 -2.312847,3.3631 -2.249598,7.84293 0.158475,11.22476 0.605237,0.84998 0.607619,0.87678 0.111001,1.24943 -0.71178,0.53409 -2.945209,1.66151 -3.29147,1.66151 -0.158408,0 -0.570928,-0.62508 -0.91671,-1.38906 z m 4.911524,-3.07735 c -1.140663,-1.77757 -1.535699,-3.78066 -1.11571,-5.65738 0.335293,-1.49825 1.636037,-3.84624 2.219227,-4.00595 0.182308,-0.0499 1.105376,-0.23299 2.051261,-0.4068 0.945886,-0.17382 2.34487,-0.59902 3.108854,-0.9449 1.609289,-0.72858 1.52164,-0.92013 1.131531,2.47286 -0.199419,1.73445 -0.432716,2.49667 -1.093272,3.57188 -1.757267,2.86037 -4.557876,6.26169 -5.155808,6.26169 -0.174564,0 -0.690303,-0.58113 -1.146083,-1.2914 z M 24.228368,65.16607 c -0.485827,-0.2484 -0.99151,-0.73619 -1.123738,-1.08397 -0.495736,-1.30388 -1.583722,-5.96274 -1.428689,-6.11778 0.22756,-0.22756 3.444522,1.44435 5.02325,2.61066 1.465226,1.08247 3.495546,4.14582 3.045818,4.59555 -0.140862,0.14086 -1.240984,0.2991 -2.444716,0.35164 -1.684579,0.0735 -2.392026,-0.008 -3.071925,-0.3561 z M 35.695024,59.99264 C 35.403983,59.69245 34.314046,58.80071 33.272942,58.01099 31.396009,56.58726 31.376111,56.55905 30.916288,54.66991 29.977357,50.8124 28.486993,47.88759 26.629053,46.2563 25.820956,45.54678 22.71446,43.90301 21.47367,43.52838 c -0.258255,-0.078 -0.463021,-0.39716 -0.463021,-0.72174 0,-1.15213 0.588856,-3.93258 0.83286,-3.93258 0.588457,0 4.47826,2.8884 6.208056,4.60984 3.155811,3.14056 5.569716,7.42656 7.50387,13.32346 0.586097,1.7869 1.065631,3.36448 1.065631,3.50572 0,0.39777 -0.345697,0.27815 -0.926042,-0.32044 z m 25.118158,-1.47423 c 0.275937,-1.9821 1.614998,-4.42379 3.552558,-6.47784 l 1.756368,-1.86197 0.173177,1.02846 c 0.09525,0.56565 0.25645,2.10595 0.358222,3.42288 0.178782,2.31338 0.16206,2.42173 -0.493995,3.20141 -0.757436,0.90017 -2.298708,1.55027 -4.23449,1.78611 l -1.286669,0.15676 z m -8.195937,-2.60359 c -0.10796,-1.15049 -0.125666,-3.69915 -0.03935,-5.66368 0.193775,-4.41012 1.010118,-7.83609 2.710929,-11.37708 1.605584,-3.34273 3.887499,-7.18563 4.122258,-6.94216 0.103569,0.1074 0.68072,1.11195 1.282563,2.23233 l 1.094258,2.03704 -1.562931,2.064 c -3.169695,4.18589 -3.763446,5.80947 -3.923651,10.72907 l -0.109855,3.37341 -1.234025,2.05055 c -0.678714,1.1278 -1.438749,2.39655 -1.688968,2.81944 L 52.81353,58.00663 Z M 26.792305,53.62036 C 25.388309,52.71317 23.483309,51.49468 22.558971,50.9126 l -1.680613,-1.05833 -0.07563,-2.5713 -0.07563,-2.57129 1.027396,0.36248 c 2.792392,0.98521 5.023644,2.70671 5.97683,4.61134 0.513264,1.02559 0.929254,2.18335 1.890676,5.262 0.172157,0.55127 -0.173408,0.3892 -2.829703,-1.32714 z m 31.00381,-5.00984 c -0.01061,-2.24146 0.406169,-4.21892 1.236617,-5.86742 0.911614,-1.80963 3.28231,-5.00782 3.518974,-4.74728 0.108305,0.11923 0.520417,1.03836 0.915805,2.04252 0.55421,1.40751 0.65754,1.953 0.451075,2.38125 -0.147296,0.30553 -1.360254,1.92473 -2.695461,3.59822 -1.335207,1.67349 -2.65062,3.34036 -2.923138,3.70416 l -0.49549,0.66146 -0.0084,-1.77291 z"/><path style="fill:#448953;stroke-width:.264583" id="path1781" d="m 48.101874,94.08254 c -3.22942,-1.74089 -7.726132,-5.04967 -10.81935,-7.96112 -1.270888,-1.1962 -1.291699,-1.2383 -0.529166,-1.07036 3.543027,0.78033 4.755851,0.96345 6.526469,0.9854 l 2.028552,0.0252 2.008899,1.88273 2.0089,1.88273 0.393959,2.2386 c 0.449083,2.55184 0.472855,2.90242 0.196241,2.89405 -0.10914,-0.003 -0.925668,-0.39804 -1.814504,-0.87719 z M 47.369505,86.14785 C 45.641222,84.37268 44.225006,82.53925 43.197891,80.7473 42.34348,79.25665 42.323575,79.15007 42.295553,75.91574 42.260413,71.86051 41.797319,69.85637 40.06221,66.25055 39.359879,64.791 38.545623,62.58835 38.252751,61.35576 35.521426,49.86066 30.626226,42.2863 23.1955,38.05762 22.578157,37.7063 22.072141,37.25875 22.07102,37.06306 c -0.0029,-0.51142 1.022883,-3.80399 1.331706,-4.27441 0.529498,-0.80655 7.232985,6.82153 10.694881,12.17 4.886548,7.5495 10.239156,19.7072 12.406213,28.17896 0.527211,2.06106 2.350606,13.57188 2.21402,13.97679 -0.05764,0.17089 -0.664398,-0.26406 -1.348335,-0.96655 z m -5.853647,-1.5257 c -0.873125,-0.12369 -2.873791,-0.5411 -4.445923,-0.92758 l -2.858423,-0.70269 -1.335779,-1.51752 c -1.496755,-1.7004 -4.45675,-5.76018 -4.45675,-6.11265 0,-0.12598 0.844131,0.31701 1.875848,0.98443 1.031716,0.66741 2.601739,1.50844 3.488939,1.86894 1.711325,0.69537 4.947022,1.40482 6.407189,1.40482 0.79342,0 0.958893,0.14579 1.726769,1.52136 0.467093,0.83674 1.149207,1.92121 1.515811,2.40993 0.540568,0.72064 0.59736,0.93241 0.300477,1.12043 -0.201343,0.12751 -0.425606,0.21915 -0.498367,0.20364 -0.07276,-0.0155 -0.846666,-0.12942 -1.719791,-0.25311 z m -3.836459,-6.68141 c -1.567864,-0.32884 -1.555499,-0.30411 -1.07868,-2.1573 0.947355,-3.68194 -0.69527,-7.83956 -3.923861,-9.93162 -0.800307,-0.51858 -1.424986,-1.15489 -1.585329,-1.61485 -0.931694,-2.67266 -3.506183,-5.05794 -7.567338,-7.01117 -1.164167,-0.55991 -2.157912,-1.04021 -2.208323,-1.06733 -0.154685,-0.0832 -0.621497,-4.35632 -0.490242,-4.48757 0.439475,-0.43948 12.377538,7.6626 14.392441,9.7678 2.154463,2.25102 4.562846,6.53139 5.21202,9.26322 0.416703,1.75354 0.688639,4.92311 0.532453,6.206 -0.164555,1.35162 -0.191469,1.38838 -0.998522,1.36355 -0.456176,-0.014 -1.484254,-0.16286 -2.284619,-0.33073 z m -4.169315,-1.24029 c -0.908206,-0.36495 -4.808973,-2.99319 -6.127322,-4.12844 -0.839598,-0.72299 -1.454018,-1.6242 -2.182812,-3.20167 -0.557866,-1.2075 -1.014405,-2.28259 -1.014533,-2.38909 -1.28e-4,-0.1065 1.101201,-0.19364 2.447396,-0.19364 1.346195,0 2.933927,-0.0964 3.528292,-0.21429 1.002741,-0.19884 1.174443,-0.14013 2.38125,0.81426 2.437414,1.92762 3.50954,5.12161 2.763311,8.23224 -0.340565,1.41964 -0.585346,1.56695 -1.795582,1.08063 z m 14.56735,-6.07638 c 0,-0.80037 0.0496,-1.12779 0.110223,-0.72761 0.06062,0.40019 0.06062,1.05503 0,1.45521 -0.06062,0.40019 -0.110223,0.0728 -0.110223,-0.7276 z M 24.228368,65.16608 c -0.485827,-0.2484 -0.99151,-0.73619 -1.123738,-1.08397 -0.495736,-1.30388 -1.583722,-5.96274 -1.428689,-6.11778 0.22756,-0.22756 3.444522,1.44435 5.02325,2.61066 1.465226,1.08247 3.495546,4.14582 3.045818,4.59555 -0.140862,0.14086 -1.240984,0.2991 -2.444716,0.35164 -1.684579,0.0735 -2.392026,-0.008 -3.071925,-0.3561 z M 35.695024,59.99265 C 35.403983,59.69246 34.314046,58.80072 33.272942,58.011 31.396009,56.58727 31.376111,56.55906 30.916288,54.66992 29.977357,50.81241 28.486993,47.8876 26.629053,46.25631 25.820956,45.54679 22.71446,43.90302 21.47367,43.52839 c -0.258255,-0.078 -0.463021,-0.39716 -0.463021,-0.72174 0,-1.15213 0.588856,-3.93258 0.83286,-3.93258 0.588457,0 4.47826,2.8884 6.208056,4.60984 3.155811,3.14056 5.569716,7.42656 7.50387,13.32346 0.586097,1.7869 1.065631,3.36448 1.065631,3.50572 0,0.39777 -0.345697,0.27815 -0.926042,-0.32044 z m 12.385112,-1.67171 c 0.0016,-0.87312 0.05088,-1.19841 0.109765,-0.72286 0.05888,0.47555 0.05767,1.18992 -0.0027,1.5875 -0.06037,0.39757 -0.108551,0.008 -0.107065,-0.86464 z M 26.792305,53.62037 c -1.403996,-0.90719 -3.308996,-2.12568 -4.233334,-2.70776 l -1.680613,-1.05833 -0.07563,-2.5713 -0.07563,-2.57129 1.027396,0.36248 c 2.792392,0.98521 5.023644,2.70671 5.97683,4.61134 0.513264,1.02559 0.929254,2.18335 1.890676,5.262 0.172157,0.55127 -0.173408,0.3892 -2.829703,-1.32714 z m 21.776786,-1.51714 c 0,-0.3638 0.06005,-0.51263 0.133453,-0.33072 0.0734,0.1819 0.0734,0.47955 0,0.66145 -0.0734,0.18191 -0.133453,0.0331 -0.133453,-0.33073 z m 0.50828,-3.8585 c 0.0127,-0.30823 0.07539,-0.37092 0.159851,-0.15985 0.07643,0.19099 0.06703,0.41919 -0.02087,0.50711 -0.08792,0.0879 -0.150453,-0.0684 -0.138965,-0.34726 z m 0.529167,-2.91042 c 0.0127,-0.30822 0.07539,-0.37092 0.159851,-0.15985 0.07643,0.19099 0.06703,0.4192 -0.02088,0.50712 -0.08792,0.0879 -0.150452,-0.0683 -0.138964,-0.34727 z m 0.529167,-2.38125 c 0.0127,-0.30822 0.07539,-0.37092 0.15985,-0.15985 0.07643,0.19099 0.06703,0.4192 -0.02088,0.50712 -0.08792,0.0879 -0.150453,-0.0683 -0.138965,-0.34727 z"/><path style="fill:#2d7845;stroke-width:.264583" id="path1779" d="m 48.27402,94.01303 c -0.648637,-0.35684 -1.243949,-0.73737 -1.322917,-0.84562 -0.07897,-0.10825 -0.471001,-0.34067 -0.871183,-0.51649 -0.400182,-0.17582 -0.727604,-0.44831 -0.727604,-0.60554 0,-0.15723 -0.09726,-0.22576 -0.216136,-0.1523 -0.118877,0.0735 -0.863017,-0.3736 -1.653645,-0.9935 -0.790631,-0.61989 -1.63526,-1.23853 -1.876952,-1.37473 -0.689864,-0.38878 -4.731994,-3.89566 -4.619692,-4.00797 0.05537,-0.0554 1.244804,0.0834 2.643196,0.30847 1.398392,0.22503 3.263472,0.40914 4.144619,0.40914 h 1.602086 l 1.93498,1.91823 c 1.891054,1.87468 1.942106,1.96027 2.248702,3.77031 0.172545,1.01864 0.376108,2.06044 0.452361,2.3151 0.187653,0.62671 -0.305623,0.56281 -1.737815,-0.2251 z m -1.290693,-8.52382 c -0.776436,-0.82703 -2.080594,-2.51571 -2.89813,-3.75264 l -1.486432,-2.24896 -0.04863,-3.70417 c -0.04214,-3.2096 -0.144042,-4.00444 -0.76323,-5.95312 -0.393031,-1.23693 -1.167776,-3.098 -1.72166,-4.13571 -0.834848,-1.56412 -1.19112,-2.49387 -1.456802,-3.80179 -0.01478,-0.0728 -0.120918,-0.60854 -0.235862,-1.19063 -0.369259,-1.86995 -2.703322,-8.4038 -3.733387,-10.45104 -1.681006,-3.34098 -3.454946,-5.87379 -5.47817,-7.82166 -1.887539,-1.81724 -5.169046,-4.33782 -6.105855,-4.69001 -0.257962,-0.097 -0.534618,-0.34727 -0.61479,-0.55619 -0.205622,-0.53584 0.78613,-3.94263 1.186601,-4.07613 0.278251,-0.0928 3.227225,2.74594 4.627184,4.45414 2.488808,3.03678 3.811784,4.7941 5.413607,7.19093 1.042229,1.5595 1.894962,2.90131 1.894962,2.98182 0,0.0805 0.28433,0.59678 0.631845,1.14727 0.826581,1.30939 3.605941,6.7279 4.231225,8.249 0.26919,0.65484 0.789115,1.84154 1.155391,2.63711 0.932294,2.02499 1.72298,4.18739 3.497567,9.56531 1.465569,4.44143 1.708224,5.38605 1.987669,7.73769 0.06682,0.56232 0.181006,1.21717 0.253748,1.45521 0.07274,0.23804 0.377828,2.04015 0.677971,4.00468 0.300144,1.96453 0.609547,3.78023 0.687562,4.0349 0.241494,0.78828 -0.234701,0.4873 -1.702384,-1.07601 z m -7.476173,-1.35908 c -4.631178,-0.97708 -5.058237,-1.16918 -6.638749,-2.98619 -1.549846,-1.78174 -4.210797,-5.43058 -3.7833,-5.18785 0.142956,0.0812 1.093357,0.63635 2.112003,1.23375 1.018645,0.5974 2.383689,1.27324 3.033431,1.50186 1.620671,0.57028 4.69609,1.19231 5.896256,1.19257 0.545703,1.2e-4 0.992188,0.104 0.992188,0.23085 0,0.12685 0.595312,1.14256 1.322916,2.25714 0.727604,1.11458 1.322917,2.08236 1.322917,2.15062 0,0.2595 -2.07209,0.0684 -4.257662,-0.39275 z m -1.827755,-6.27899 c -1.306772,-0.2158 -1.307183,-0.21667 -0.875899,-1.85291 1.065773,-4.04342 -0.595221,-8.14119 -4.278089,-10.5543 -0.384818,-0.25214 -0.978876,-1.00545 -1.320128,-1.67402 -1.576578,-3.0888 -3.63233,-4.91687 -7.628956,-6.78403 -2.457401,-1.14806 -2.555695,-1.30209 -2.562766,-4.01584 l -0.0029,-1.11762 1.389063,0.81687 c 2.329888,1.37013 8.706283,5.56159 10.30248,6.77223 3.046873,2.3109 5.206141,5.35029 7.192548,10.12426 0.589597,1.41699 0.959659,3.83338 0.959659,6.2663 v 2.20036 l -1.256771,-0.036 c -0.691223,-0.0198 -1.554427,-0.0852 -1.918229,-0.14527 z m -4.502821,-1.63121 c -1.570432,-0.79492 -4.957205,-3.1193 -6.176357,-4.2389 -0.622504,-0.57167 -2.549988,-4.17222 -2.549988,-4.76339 0,-0.091 0.982265,-0.16541 2.182812,-0.16541 1.200547,0 2.723624,-0.0991 3.384616,-0.22023 1.121398,-0.2055 1.274164,-0.16125 2.283386,0.66146 0.594871,0.48493 1.482809,1.46398 1.973197,2.17567 0.8608,1.24926 0.891614,1.38184 0.891614,3.83646 0,1.39836 -0.12127,2.74632 -0.269488,2.99547 -0.24805,0.41695 -0.384865,0.39459 -1.719792,-0.28113 z M 25.376274,65.28657 c -1.340632,-0.30268 -1.766019,-0.65177 -2.200975,-1.80625 -0.564628,-1.49866 -1.450592,-5.03559 -1.299267,-5.18691 0.185484,-0.18549 3.259672,1.37681 4.422387,2.24745 1.213207,0.90845 2.116113,1.94699 2.856435,3.28555 0.56415,1.02003 0.572792,1.1023 0.132291,1.25932 -0.939887,0.33502 -2.876106,0.43446 -3.910871,0.20084 z m 9.778994,-6.11304 C 34.583569,58.70461 33.935356,58.16777 33.714795,57.98055 33.494233,57.79334 32.947329,57.35353 32.499451,57.00319 31.847305,56.49308 31.565648,55.92855 31.085197,54.16858 29.594498,48.70792 27.159142,45.50289 23.391899,44.04389 22.300493,43.6212 21.32995,43.20781 21.235136,43.12524 c -0.216875,-0.18887 0.275816,-3.51092 0.565695,-3.81429 0.304547,-0.31871 4.057893,2.27156 6.04375,4.17094 2.043815,1.95481 3.60924,4.26645 5.333294,7.8756 1.190877,2.493 3.316925,8.36854 3.104864,8.5806 -0.04841,0.0484 -0.555772,-0.29565 -1.127471,-0.76456 z m -7.397744,-5.25977 c -0.582083,-0.43949 -1.891771,-1.27902 -2.910416,-1.86562 -4.018181,-2.31392 -4.136998,-2.46931 -4.056771,-5.30549 0.04734,-1.67363 0.08585,-1.77845 0.598476,-1.62916 1.189349,0.34637 2.892238,1.28188 4.165704,2.2885 1.370699,1.08348 2.275278,2.66199 3.414281,5.95802 0.564588,1.63379 0.349454,1.73214 -1.211274,0.55375 z"/></g></g></svg>