<?xml version="1.0" encoding="UTF-8" standalone="no"?>
<!-- Created with Inkscape (http://www.inkscape.org/) -->

<svg
   width="223.85953mm"
   height="226.33887mm"
   viewBox="0 0 223.85953 226.33887"
   version="1.1"
   id="svg5"
   xmlns="http://www.w3.org/2000/svg"
   xmlns:svg="http://www.w3.org/2000/svg">
  <defs
     id="defs2">
	
</defs>
  <g
     id="layer1"
     transform="translate(-7.4069646,-35.66716)">
    <g
       id="White_Circle"
       display="none"
       transform="matrix(0.26458333,0,0,0.26458333,-223.72483,-38.40779)">
	<circle
   display="inline"
   fill="#ffffff"
   cx="1306.16"
   cy="707.04401"
   r="337.46399"
   id="circle157" />

</g>
    <g
       id="Dependency_Wheel_Darker"
       transform="matrix(0.26458333,0,0,0.26458333,-223.72483,-38.40779)">
	<path
   opacity="0.35"
   fill="#4c629d"
   d="m 1550.011,871.242 c 0,0 -232.817,-174.452 -530.114,-98.016 -7.146,-19.823 -7.146,-54.406 -7.146,-54.406 0,0 329.038,8.96 560.652,110.65 -9.699,22.221 -23.392,41.772 -23.392,41.772 z"
   id="path160" />

	<path
   opacity="0.35"
   fill="#86bae4"
   d="m 1567.682,574.339 c 0,0 -148.782,253.019 -547.785,198.888 12.11,50.094 18.807,56.244 18.807,56.244 0,0 275.218,-1.329 552.321,-193.082 -9.516,-38.891 -23.343,-62.05 -23.343,-62.05 z"
   id="path162" />

	<path
   opacity="0.55"
   fill="#d3636b"
   d="m 1317.194,1002.103 c 0,0 63.969,-3.334 107.634,-25.718 -15.291,-38.416 -123.91,-339.883 -239.14,0 61.14,25.718 109.476,24.848 109.476,24.848 0,0 -6.539,-165.68 10.095,-165.68 16.631,0 11.935,166.55 11.935,166.55 z"
   id="path164" />

	<path
   opacity="0.5"
   fill="#d3636b"
   d="m 1501.162,927.176 c 0,0 -155.857,-194.184 -479.83,-290.787 -7.853,28.857 -8.58,60.401 -8.58,60.401 0,0 353.356,0 412.635,279.511 38.839,-14.591 75.775,-49.125 75.775,-49.125 z"
   id="path166" />

	<path
   opacity="0.3"
   fill="#f69679"
   d="m 1185.688,975.516 c 0,0 54.951,-340.265 331.376,-63.591 19.434,-20.304 33.757,-39.966 33.757,-39.966 0,0 -236.034,-214.019 -439.622,55.217 35.238,31.922 74.489,48.34 74.489,48.34 z"
   id="path168" />

	<path
   opacity="0.3"
   fill="#f69679"
   d="m 1065.316,875.57 c 0,0 321.451,-149.754 -43.984,-239.182 12.994,-49.978 16.503,-47.762 16.503,-47.762 0,0 326.536,80.094 73.364,338.549 -27.37,-23.736 -45.883,-51.605 -45.883,-51.605 z"
   id="path170" />

	<path
   opacity="0.4"
   fill="#ffde17"
   d="m 1037.834,588.627 c 0,0 219.122,77.568 561.773,108.163 -0.729,-30.53 -8.583,-60.401 -8.583,-60.401 0,0 -257.921,71.415 -529.694,-90.496 -14.601,22.167 -23.496,42.734 -23.496,42.734 z"
   id="path172" />

	<path
   opacity="0.4"
   fill="#ffde17"
   d="m 1091.847,507.301 c 0,0 112.287,111.749 380.499,-41.47 23.827,17.237 36.927,30.099 36.927,30.099 0,0 -106.233,94.584 -447.942,49.963 7.883,-11.764 8.025,-13.247 30.516,-38.592 z"
   id="path174" />

	<path
   opacity="0.25"
   fill="#ffde17"
   d="M 1100.333,556.909"
   id="path176" />

	<path
   opacity="0.25"
   fill="#ffde17"
   d="M 1157.08,574.339"
   id="path178" />

	<path
   opacity="0.25"
   fill="#00b2c1"
   d="m 1107.494,491.79 c 0,0 213.998,233.22 364.853,-25.958 -15.908,-12.511 -35.917,-21.154 -35.917,-21.154 0,0 -134.068,281.56 -276.773,8.739 -42.387,22.616 -52.163,38.373 -52.163,38.373 z"
   id="path180" />

	<path
   opacity="0.25"
   fill="#00b2c1"
   d="m 1392.722,427.191 c 0,0 -95.499,246.064 189.084,381.896 9.219,-25.312 12.74,-44.312 12.74,-44.312 0,0 -297.984,-36.911 -158.117,-320.1 -17.183,-8.9 -43.707,-17.484 -43.707,-17.484 z"
   id="path182" />

	<path
   opacity="0.4"
   fill="#1c75bc"
   d="m 1567.682,574.339 c 0,0 -148.872,145.073 31.926,144.481 0,23.146 -5.062,45.956 -5.062,45.956 0,0 -217.226,-98.373 -69.949,-253.017 33.172,37.101 43.085,62.58 43.085,62.58 z"
   id="path184" />

	<path
   opacity="0.6"
   fill="#d7df23"
   d="m 1065.316,875.57 c 0,0 318.088,-142.508 154.313,-448.379 -37.8,11.509 -59.974,26.225 -59.974,26.225 0,0 238.883,258.134 -120.952,376.055 15.416,31.925 26.613,46.099 26.613,46.099 z"
   id="path186" />

	<path
   opacity="0.6"
   fill="#d7df23"
   d="m 1295.164,414.375 c 0,0 14.2,256.66 22.03,0 43.993,1.452 75.528,12.816 75.528,12.816 0,0 -74.467,295.447 -173.093,0 45.002,-13.534 75.535,-12.816 75.535,-12.816 z"
   id="path188" />

	<g
   id="g206">
		<path
   fill="#86bae4"
   d="m 1524.597,511.76 c 44.451,49.474 72.38,114.073 75.011,185.03 h 44.085 c -1.325,-41.69 -10.175,-82.156 -26.366,-120.439 -14.957,-35.362 -35.589,-67.552 -61.433,-95.887 z"
   id="path190" />

		<path
   fill="#1c75bc"
   d="m 1599.608,718.82 c -1.171,31.606 -7.362,61.955 -17.802,90.268 l 40.188,18.545 c 13.229,-34.816 20.508,-71.32 21.699,-108.812 h -44.085 z"
   id="path192" />

		<path
   fill="#00b2c1"
   d="m 1317.194,414.375 c 74.377,2.757 141.771,33.312 192.079,81.554 l 31.258,-31.258 c -29.998,-28.939 -64.586,-51.809 -102.899,-68.016 -38.283,-16.192 -78.749,-25.04 -120.438,-26.366 z"
   id="path194" />

		<path
   fill="#4f5c99"
   d="m 1573.404,829.471 c -14.019,30.668 -33.167,58.521 -56.34,82.454 l 31.259,31.257 c 27.187,-27.948 49.069,-59.923 65.169,-95.208 z"
   id="path196" />

		<path
   fill="#d3636b"
   d="m 1501.162,927.176 c -49.334,43.896 -113.52,71.445 -183.968,74.057 v 44.085 c 41.688,-1.324 82.154,-10.174 120.438,-26.365 34.925,-14.772 66.753,-35.08 94.831,-60.476 z"
   id="path198" />

		<path
   fill="#d7df23"
   d="m 1107.494,491.79 c 49.805,-45.846 115.443,-74.737 187.67,-77.414 V 370.29 c -41.689,1.325 -82.153,10.173 -120.437,26.366 -36.461,15.421 -69.55,36.875 -98.515,63.851 z"
   id="path200" />

		<path
   fill="#f69679"
   d="M 1295.164,1001.232 C 1141.992,995.555 1018.428,871.99 1012.752,718.82 h -44.087 c 1.325,41.688 10.173,82.152 26.366,120.436 17.01,40.217 41.355,76.329 72.362,107.334 31.005,31.006 67.117,55.352 107.334,72.362 38.283,16.191 78.747,25.041 120.437,26.365 z"
   id="path202" />

		<path
   fill="#ffde17"
   d="m 1012.751,696.79 c 2.709,-73.109 32.275,-139.47 79.096,-189.489 l -31.265,-31.268 c -27.776,29.395 -49.808,63.098 -65.552,100.317 -16.192,38.283 -25.041,78.749 -26.366,120.439 h 44.087 z"
   id="path204" />

	</g>

	
		<line
   fill="none"
   stroke="#000000"
   stroke-width="15"
   stroke-miterlimit="10"
   x1="1053.249"
   y1="954.93103"
   x2="943.80103"
   y2="1064.379"
   id="line208" />

	
		<line
   fill="none"
   stroke="#000000"
   stroke-width="15"
   stroke-miterlimit="10"
   x1="982.44897"
   y1="561.65802"
   x2="876.74402"
   y2="512.26501"
   id="line210" />

	
		<line
   fill="none"
   stroke="#000000"
   stroke-width="15"
   stroke-miterlimit="10"
   x1="1113.45"
   y1="283.086"
   x2="1159.656"
   y2="384.18201"
   id="line212" />

	
		<line
   fill="none"
   stroke="#000000"
   stroke-width="15"
   stroke-miterlimit="10"
   x1="1452.588"
   y1="384.18201"
   x2="1484.764"
   y2="313.48401"
   id="line214" />

	
		<line
   fill="none"
   stroke="#000000"
   stroke-width="15"
   stroke-miterlimit="10"
   x1="1633.861"
   y1="572.57202"
   x2="1715.2629"
   y2="537.89301"
   id="line216" />

	
		<line
   fill="none"
   stroke="#000000"
   stroke-width="15"
   stroke-miterlimit="10"
   x1="1653.76"
   y1="777.31897"
   x2="1710.922"
   y2="789.44598"
   id="line218" />

	
		<line
   fill="none"
   stroke="#000000"
   stroke-width="15"
   stroke-miterlimit="10"
   x1="1599.608"
   y1="906.60602"
   x2="1715.2629"
   y2="990.08099"
   id="line220" />

	
		<line
   fill="none"
   stroke="#000000"
   stroke-width="15"
   stroke-miterlimit="10"
   x1="1443.691"
   y1="1034.536"
   x2="1484.764"
   y2="1132.5229"
   id="line222" />

</g>
  </g>
</svg>
