<?xml version="1.0" encoding="UTF-8" standalone="no"?>
<svg
   version="1.0"
   width="360.000000pt"
   height="75.000000pt"
   viewBox="0 0 360.000000 75.000000"
   preserveAspectRatio="xMidYMid meet"
   id="svg1515"
   xmlns="http://www.w3.org/2000/svg"
   xmlns:svg="http://www.w3.org/2000/svg">
  <defs
     id="defs1519" />
  <metadata
     id="metadata1499">
Created by potrace 1.16, written by Peter Selinger 2001-2019
</metadata>
  <g
     transform="translate(0.000000,75.000000) scale(0.100000,-0.100000)"
     fill="#000000"
     stroke="none"
     id="g1513"
     style="fill:#000080">
    <path
       d="M0 375 l0 -375 1800 0 1800 0 0 375 0 375 -1800 0 -1800 0 0 -375z m596 289 c17 -68 3 -94 -154 -275 l-151 -174 157 -5 157 -5 2 -62 2 -63 -264 0 -265 0 0 63 0 62 150 173 c83 95 150 174 150 175 0 1 -60 2 -132 2 l-133 0 -3 68 -3 67 240 0 241 0 6 -26z m1394 4 c96 -50 109 -180 24 -247 -15 -12 -22 -21 -16 -21 6 0 27 -13 45 -30 79 -69 66 -195 -27 -264 -25 -19 -44 -21 -231 -24 l-203 -4 -1 297 c0 164 2 301 5 306 3 5 85 9 182 9 165 0 181 -2 222 -22z m1240 -134 l0 -156 56 71 55 71 97 0 96 0 -34 -37 c-19 -21 -51 -56 -72 -78 l-37 -40 75 -139 c41 -77 74 -141 74 -143 0 -2 -40 -3 -88 -3 l-88 0 -38 85 -39 86 -28 -27 c-25 -24 -29 -35 -29 -86 l0 -58 -80 0 -80 0 0 305 0 305 80 0 80 0 0 -156z m-2283 -28 c59 -28 102 -85 110 -148 6 -40 23 -53 23 -18 0 32 28 92 58 124 75 80 225 89 318 20 45 -33 76 -106 77 -179 0 -140 -90 -234 -226 -235 -122 0 -201 66 -233 195 l-7 30 -7 -40 c-18 -112 -107 -185 -225 -185 -134 0 -229 93 -228 225 0 142 90 234 228 235 43 0 75 -7 112 -24z m1530 5 c59 -27 76 -65 80 -176 2 -49 5 -127 6 -173 l3 -82 -69 0 c-60 0 -70 2 -74 20 -7 25 -8 25 -46 -2 -22 -16 -50 -24 -94 -26 -121 -8 -171 40 -164 156 2 43 59 87 136 106 148 36 145 35 145 61 0 15 -7 26 -20 30 -30 10 -79 -4 -93 -26 -13 -20 -35 -23 -111 -13 -45 7 -47 8 -41 33 19 79 79 111 210 111 67 0 101 -5 132 -19z m478 7 c14 -6 36 -28 48 -47 20 -33 22 -51 25 -214 l4 -177 -81 0 -81 0 0 140 c0 126 -2 142 -20 160 -15 15 -25 17 -42 11 -39 -14 -48 -47 -48 -183 l0 -128 -80 0 -80 0 0 220 0 220 75 0 75 0 0 -32 0 -32 33 31 c17 17 39 33 47 36 27 10 99 7 125 -5z"
       id="path1501"
       style="fill:#000080" />
    <path
       d="M1760 505 l0 -55 54 0 c76 0 105 35 76 91 -9 15 -22 19 -70 19 l-60 0 0 -55z"
       id="path1503"
       style="fill:#000080" />
    <path
       d="M1760 269 l0 -61 66 4 c71 4 94 20 94 64 0 35 -36 54 -102 54 l-58 0 0 -61z"
       id="path1505"
       style="fill:#000080" />
    <path
       d="M791 391 c-40 -40 -34 -168 9 -191 61 -33 105 8 105 100 0 72 -23 110 -65 110 -17 0 -39 -9 -49 -19z"
       id="path1507"
       style="fill:#000080" />
    <path
       d="M1261 391 c-43 -43 -34 -171 15 -193 62 -29 113 38 99 130 -11 74 -70 107 -114 63z"
       id="path1509"
       style="fill:#000080" />
    <path
       d="M2332 263 c-73 -25 -81 -93 -12 -93 43 0 80 35 80 76 0 38 -5 40 -68 17z"
       id="path1511"
       style="fill:#000080" />
  </g>
</svg>
