<?xml version="1.0" encoding="UTF-8" standalone="no"?>
<!-- Created with Inkscape (http://www.inkscape.org/) -->

<svg
   width="30mm"
   height="30mm"
   viewBox="0 0 30 30"
   version="1.1"
   id="svg5"
   xml:space="preserve"
   xmlns="http://www.w3.org/2000/svg"
   xmlns:svg="http://www.w3.org/2000/svg"><defs
     id="defs2" /><g
     id="layer1"
     transform="translate(-141.93035,-168.53739)"><path
       style="fill:#519e30;stroke-width:0.264583"
       d="m 163.75625,196.32646 c -3.08358,-0.78183 -5.59894,-2.41949 -9.7322,-6.33628 -2.44355,-2.31556 -4.05079,-3.13309 -6.21731,-3.16244 -1.55735,-0.0211 -3.91936,0.80051 -4.42772,1.54017 -0.10691,0.15555 -0.19621,0.175 -0.19844,0.0432 -0.0191,-1.12724 3.26167,-3.35114 5.5522,-3.76366 1.478,-0.26618 1.54374,-0.40749 1.12056,-2.40861 -0.65534,-3.09886 0.0364,-8.85437 1.37015,-11.39988 0.34252,-0.65373 0.35815,-0.65701 0.63808,-0.13397 1.23122,2.30055 1.9259,7.98553 1.3853,11.33668 -0.17937,1.11191 -0.28287,2.06492 -0.23,2.11779 0.0529,0.0529 1.1163,0.22289 2.36318,0.37784 8.6063,1.06946 14.71544,5.14553 15.23337,10.16384 0.12475,1.20868 0.075,1.43691 -0.35045,1.6093 -0.98009,0.39709 -4.96502,0.40689 -6.50672,0.016 z m -8.67347,-14.52381 c 0,-1.57161 0.84081,-3.97643 1.81167,-5.18162 1.56303,-1.94029 4.31162,-3.18384 7.03717,-3.18384 h 1.2735 l -0.18107,1.38907 c -0.5586,4.28531 -3.97292,7.59821 -8.28762,8.04144 l -1.65365,0.16988 z"
       id="path1133" /></g></svg>
